<svg width="450" height="450" viewBox="0 0 450 450" fill="none" xmlns="http://www.w3.org/2000/svg">
<path d="M144.796 410.324C210.957 410.324 264.592 356.689 264.592 290.528C264.592 224.365 210.957 170.731 144.796 170.731C78.6346 170.731 25 224.365 25 290.528C25 356.689 78.6346 410.324 144.796 410.324Z" fill="#04E061"/>
<path d="M352.613 395.206C392.592 395.206 425 362.796 425 322.817C425 282.838 392.592 250.429 352.613 250.429C312.634 250.429 280.224 282.838 280.224 322.817C280.224 362.796 312.634 395.206 352.613 395.206Z" fill="#FF4053"/>
<path d="M167.707 155.114C192.447 155.114 212.502 135.059 212.502 110.319C212.502 85.5793 192.447 65.5237 167.707 65.5237C142.967 65.5237 122.912 85.5793 122.912 110.319C122.912 135.059 142.967 155.114 167.707 155.114Z" fill="#965EEB"/>
<path d="M324.49 234.798C378.281 234.798 421.888 191.19 421.888 137.399C421.888 83.6069 378.281 40 324.49 40C270.697 40 227.091 83.6069 227.091 137.399C227.091 191.19 270.697 234.798 324.49 234.798Z" fill="#00AAFF"/>
</svg>
