<svg width="450" height="450" viewBox="0 0 450 450" fill="none" xmlns="http://www.w3.org/2000/svg">
  <path
    d="M229.123 365.765C199.664 366.617 170.615 358.714 145.648 343.055C120.681 327.397 100.919 304.686 88.8601 277.795C76.8013 250.904 72.9878 221.041 77.9018 191.983C82.8159 162.925 96.2368 135.976 116.467 114.546C136.698 93.1154 162.829 78.1656 191.556 71.5871C220.283 65.0086 250.316 67.0969 277.857 77.5879C305.397 88.0789 329.208 106.501 346.278 130.525C363.347 154.549 372.909 183.096 373.755 212.555C374.323 232.112 371.032 251.59 364.07 269.876C357.108 288.162 346.612 304.896 333.18 319.124C319.749 333.352 303.646 344.794 285.792 352.797C267.937 360.8 248.681 365.207 229.123 365.765ZM424.912 211.081C423.742 171.558 410.883 133.269 387.96 101.051C365.037 68.834 333.078 44.1343 296.122 30.0733C259.167 16.0123 218.872 13.221 180.331 22.0522C141.79 30.8833 106.731 50.9406 79.5841 79.6895C52.4376 108.438 34.4219 144.589 27.8133 183.573C21.2048 222.557 26.3 262.625 42.4551 298.715C58.6102 334.804 85.1003 365.295 118.578 386.335C152.056 407.375 191.019 418.019 230.544 416.923C256.83 416.194 282.714 410.289 306.715 399.545C330.716 388.801 352.363 373.43 370.416 354.31C388.47 335.191 402.576 312.699 411.927 288.122C421.278 263.545 425.691 237.365 424.912 211.081Z"
    fill="#0066B3" />
  <path
    d="M224.649 362.239C186.66 361.905 150.309 346.718 123.373 319.926C96.4378 293.133 81.0567 256.864 80.5203 218.877C79.9839 180.889 94.3348 144.2 120.503 116.658C146.671 89.1161 182.579 72.9083 220.544 71.5021H224.807C263.04 71.4498 299.755 86.4618 326.998 113.286C354.241 140.111 369.82 176.588 370.36 214.818C370.9 253.047 356.357 289.95 329.882 317.533C303.408 345.116 267.132 361.159 228.913 362.186H224.649M224.649 365.765H229.018C268.201 364.726 305.397 348.288 332.545 320.013C359.693 291.739 374.605 253.906 374.051 214.712C373.498 175.519 357.522 138.122 329.586 110.626C301.65 83.1301 264.005 67.7498 224.807 67.8179H220.439C180.922 68.3763 143.245 84.6099 115.697 112.948C88.1485 141.285 72.9858 179.406 73.5442 218.923C74.1025 258.44 90.3362 296.117 118.674 323.665C147.012 351.213 185.132 366.376 224.649 365.818"
    fill="white" />
  <path
    d="M224.912 75.0811H220.755C183.136 75.5975 147.263 91.0369 121.027 118.003C94.7922 144.968 80.3434 181.252 80.8599 218.87C81.3764 256.489 96.8157 292.362 123.781 318.598C150.747 344.833 187.03 359.282 224.649 358.765H228.807C265.814 357.38 300.81 341.571 326.313 314.719C351.815 287.867 365.8 252.103 365.278 215.074C364.755 178.046 349.767 142.691 323.517 116.569C297.266 90.4474 261.838 75.6323 224.807 75.2916L224.912 75.0811ZM224.649 369.291C194.914 369.166 165.863 360.357 141.065 343.947C116.267 327.537 96.8029 304.241 85.0631 276.921C73.3233 249.601 69.8195 219.446 74.9821 190.162C80.1446 160.878 93.7487 133.74 114.123 112.081C127.808 97.4867 144.25 85.749 162.498 77.5463C180.746 69.3437 200.439 64.8387 220.439 64.2916H224.912C265.393 63.7263 304.44 79.2649 333.464 107.489C362.487 135.713 379.11 174.311 379.676 214.792C380.241 255.272 364.702 294.319 336.478 323.343C308.254 352.366 269.656 368.989 229.176 369.555H224.649"
    fill="#0066B3" />
  <path
    d="M366.176 330.449L359.807 320.713L355.228 326.502L366.176 330.449ZM343.807 327.923L342.702 327.449C342.702 327.449 342.334 327.134 342.334 326.923C342.237 326.669 342.237 326.388 342.334 326.134C342.622 325.709 342.938 325.305 343.281 324.923C343.585 324.48 343.919 324.057 344.281 323.66C344.479 323.434 344.71 323.239 344.965 323.081C345.032 323.052 345.103 323.037 345.176 323.037C345.248 323.037 345.32 323.052 345.386 323.081H345.807L351.071 324.976L357.176 317.292L354.228 312.87C354.211 312.713 354.211 312.554 354.228 312.397C354.176 312.225 354.176 312.042 354.228 311.87L354.65 311.134L355.492 310.028L356.439 308.923C356.523 308.819 356.626 308.733 356.744 308.67C356.861 308.606 356.99 308.567 357.123 308.555C357.123 308.555 357.492 308.555 357.702 308.818C357.963 309.109 358.192 309.426 358.386 309.765L371.492 330.449C371.51 330.624 371.51 330.801 371.492 330.976C371.516 331.186 371.516 331.397 371.492 331.607L370.965 332.449C370.659 332.891 370.325 333.313 369.965 333.713L368.807 335.186L367.965 335.976C367.777 336.033 367.575 336.033 367.386 335.976C367.161 336.023 366.928 336.023 366.702 335.976L343.807 327.923ZM368.018 304.502C368.479 304.793 369.002 304.973 369.544 305.028C370.012 305.133 370.497 305.133 370.965 305.028C371.467 304.836 371.918 304.53 372.281 304.134C372.849 303.611 373.313 302.986 373.65 302.292L375.334 299.344L368.755 295.607L367.071 298.607C366.707 299.236 366.424 299.908 366.228 300.607C366.154 301.113 366.154 301.628 366.228 302.134C366.334 302.622 366.531 303.086 366.807 303.502C367.141 303.946 367.574 304.307 368.071 304.555M365.755 309.449C364.78 308.902 363.922 308.169 363.228 307.292C362.558 306.483 362.089 305.527 361.86 304.502C361.6 303.341 361.6 302.137 361.86 300.976C362.201 299.37 362.825 297.837 363.702 296.449L367.123 290.344C367.205 290.143 367.327 289.96 367.48 289.807C367.634 289.653 367.817 289.531 368.018 289.449C368.255 289.404 368.5 289.408 368.735 289.463C368.971 289.517 369.193 289.62 369.386 289.765L389.123 300.87C389.341 300.954 389.535 301.089 389.691 301.263C389.847 301.437 389.959 301.645 390.018 301.87C390.168 302.26 390.168 302.691 390.018 303.081L382.544 315.976L382.281 316.239H381.86H381.176L380.334 315.818L379.492 315.292C379.308 315.161 379.148 315.001 379.018 314.818C378.978 314.698 378.978 314.569 379.018 314.449C378.99 314.392 378.975 314.329 378.975 314.265C378.975 314.201 378.99 314.138 379.018 314.081L384.281 304.502L378.597 301.292L376.492 305.081C375.839 306.307 375.025 307.44 374.071 308.449C373.305 309.168 372.412 309.739 371.439 310.134C370.537 310.491 369.56 310.617 368.597 310.502C367.54 310.406 366.517 310.083 365.597 309.555M371.492 284.292C371.389 284.328 371.278 284.328 371.176 284.292C371.176 284.292 371.176 284.028 371.176 283.818C371.153 283.538 371.153 283.256 371.176 282.976C371.283 282.527 371.424 282.088 371.597 281.66C371.673 281.033 371.814 280.416 372.018 279.818C372.115 279.534 372.257 279.267 372.439 279.028C372.542 278.881 372.69 278.77 372.86 278.713H373.386H379.544C380.296 278.803 381.056 278.803 381.807 278.713C382.378 278.633 382.93 278.455 383.439 278.186C383.877 277.94 384.255 277.598 384.544 277.186C384.847 276.733 385.078 276.236 385.228 275.713L385.597 274.713L375.702 271.449C375.702 271.449 375.702 271.449 375.386 271.449C375.325 271.298 375.325 271.128 375.386 270.976C375.371 270.713 375.371 270.449 375.386 270.186L375.755 268.976L376.176 267.818L376.597 267.081L376.965 266.765H377.281L387.123 270.028L387.492 269.081C387.588 268.506 387.588 267.919 387.492 267.344C387.518 266.834 387.409 266.325 387.176 265.87C386.946 265.36 386.625 264.897 386.228 264.502C385.716 264.01 385.171 263.553 384.597 263.134L379.334 259.502L379.649 258.765C379.615 258.574 379.615 258.378 379.649 258.186C379.633 257.906 379.633 257.625 379.649 257.344C379.744 256.898 379.867 256.459 380.018 256.028C380.168 255.597 380.344 255.176 380.544 254.765C380.646 254.493 380.77 254.229 380.913 253.976L381.281 253.66C381.416 253.607 381.567 253.607 381.702 253.66C381.702 253.66 381.702 253.66 382.018 253.66H382.386L382.913 254.081L387.281 257.449C388.003 257.962 388.673 258.543 389.281 259.186C389.76 259.631 390.168 260.145 390.492 260.713C390.814 261.154 391.047 261.655 391.176 262.186C391.205 262.73 391.205 263.274 391.176 263.818C391.453 263.418 391.79 263.063 392.176 262.765C392.562 262.436 393.009 262.186 393.492 262.028C394.076 261.84 394.674 261.699 395.281 261.607C396.104 261.546 396.931 261.546 397.755 261.607H403.755H404.334C404.436 261.571 404.547 261.571 404.649 261.607C404.649 261.607 404.649 261.87 404.649 262.081C404.669 262.344 404.669 262.608 404.649 262.87C404.561 263.301 404.438 263.723 404.281 264.134C404.159 264.567 404 264.99 403.807 265.397C403.807 265.713 403.807 266.028 403.386 266.134C403.289 266.298 403.141 266.427 402.965 266.502H402.439H396.702C396.019 266.444 395.332 266.444 394.65 266.502C394.134 266.539 393.633 266.682 393.176 266.923C392.767 267.168 392.409 267.49 392.123 267.87C391.802 268.32 391.553 268.817 391.386 269.344L391.071 270.344L400.334 273.397C400.436 273.364 400.547 273.364 400.649 273.397C400.649 273.397 400.649 273.397 400.649 273.87C400.692 274.132 400.692 274.399 400.649 274.66C400.576 275.077 400.452 275.483 400.281 275.87C400.166 276.265 400.026 276.652 399.86 277.028C399.755 277.292 399.613 277.54 399.439 277.765C399.359 277.912 399.228 278.024 399.071 278.081H398.702L389.913 276.134L389.597 277.081C389.395 277.602 389.288 278.154 389.281 278.713C389.279 279.187 389.387 279.656 389.597 280.081C389.843 280.566 390.162 281.01 390.544 281.397C390.997 281.881 391.51 282.306 392.071 282.66L396.755 285.976C396.898 286.054 397.024 286.161 397.123 286.292C397.176 286.463 397.176 286.646 397.123 286.818C397.166 287.097 397.166 287.381 397.123 287.66C397.054 288.112 396.93 288.554 396.755 288.976C396.633 289.393 396.475 289.798 396.281 290.186C396.18 290.442 396.056 290.689 395.913 290.923C395.818 291.057 395.691 291.165 395.544 291.239H395.176H394.544L393.755 290.344L389.913 287.397C389.269 286.925 388.654 286.415 388.071 285.87C387.638 285.437 387.25 284.961 386.913 284.449C386.656 284.023 386.461 283.562 386.334 283.081C386.254 282.575 386.254 282.06 386.334 281.555C385.953 281.999 385.53 282.404 385.071 282.765C384.615 283.09 384.12 283.355 383.597 283.555C382.984 283.78 382.349 283.939 381.702 284.028C380.826 284.089 379.947 284.089 379.071 284.028H371.597M389.386 244.081C388.157 243.433 386.979 242.694 385.86 241.871C385.061 241.307 384.382 240.592 383.86 239.765C383.353 239.111 383.043 238.326 382.965 237.502C382.807 236.614 382.807 235.706 382.965 234.818V233.765C382.965 233.449 382.965 233.134 383.334 232.818C383.424 232.557 383.548 232.31 383.702 232.081L384.071 231.607H384.386H384.86H385.597H386.649C387.212 231.624 387.766 231.749 388.281 231.976C388.597 231.976 388.755 232.344 388.702 232.555C388.746 232.692 388.746 232.839 388.702 232.976C388.536 233.109 388.394 233.269 388.281 233.449C388.136 233.665 388.013 233.894 387.913 234.134C387.876 234.448 387.876 234.766 387.913 235.081C387.86 235.342 387.86 235.61 387.913 235.871C387.868 236.114 387.868 236.364 387.913 236.607C388.092 236.862 388.305 237.092 388.544 237.292C388.883 237.61 389.253 237.892 389.649 238.134L408.123 231.976C408.471 231.915 408.828 231.915 409.176 231.976C409.266 231.933 409.365 231.912 409.465 231.912C409.565 231.912 409.664 231.933 409.755 231.976C409.831 232.251 409.831 232.542 409.755 232.818C409.794 233.326 409.794 233.836 409.755 234.344C409.755 234.976 409.755 235.449 409.755 235.818C409.723 236.137 409.614 236.444 409.439 236.713C409.357 236.914 409.208 237.081 409.018 237.186L408.334 237.449L400.018 240.028L397.386 240.87L394.702 241.555L397.228 242.765L399.755 244.081L407.281 248.081C407.444 248.175 407.588 248.3 407.702 248.449C407.72 248.607 407.72 248.766 407.702 248.923C407.728 249.221 407.728 249.52 407.702 249.818C407.702 250.186 407.702 250.713 407.702 251.292C407.731 251.765 407.731 252.239 407.702 252.713C407.645 252.993 407.538 253.26 407.386 253.502C407.314 253.544 407.233 253.566 407.149 253.566C407.066 253.566 406.985 253.544 406.913 253.502C406.515 253.602 406.099 253.602 405.702 253.502L389.386 244.081ZM385.071 223.028H384.702C384.654 222.892 384.654 222.744 384.702 222.607C384.662 222.346 384.662 222.079 384.702 221.818C384.667 221.398 384.667 220.975 384.702 220.555V219.239C384.702 218.923 384.702 218.66 384.702 218.449C384.682 218.292 384.682 218.133 384.702 217.976H385.071L406.123 217.344V211.765C403.018 211.449 400.334 211.186 398.071 210.818C396.066 210.603 394.079 210.252 392.123 209.765C390.732 209.461 389.375 209.021 388.071 208.449C387.141 208.009 386.288 207.423 385.544 206.713C384.913 206.079 384.444 205.303 384.176 204.449C383.939 203.501 383.798 202.531 383.755 201.555C383.729 201.38 383.729 201.203 383.755 201.028C383.83 200.883 383.938 200.757 384.071 200.66H384.702H385.702C386.174 200.607 386.651 200.607 387.123 200.66H387.913C387.891 200.736 387.855 200.808 387.807 200.87C387.839 200.991 387.839 201.118 387.807 201.239C387.831 201.643 387.938 202.037 388.123 202.397C388.348 202.851 388.694 203.233 389.123 203.502C389.806 203.896 390.529 204.213 391.281 204.449C392.456 204.817 393.651 205.115 394.86 205.344L400.123 206.081C402.228 206.344 404.755 206.555 407.702 206.818C408.205 206.83 408.695 206.975 409.123 207.239C409.404 207.52 409.572 207.895 409.597 208.292L409.965 221.081C409.993 221.281 409.974 221.485 409.91 221.677C409.846 221.868 409.739 222.043 409.597 222.186C409.429 222.346 409.23 222.469 409.013 222.551C408.796 222.632 408.565 222.669 408.334 222.66L385.071 223.028ZM386.965 196.344H386.123H385.544H385.071H384.597C384.324 196.127 384.077 195.88 383.86 195.607C383.544 195.239 383.228 194.765 382.86 194.239C382.492 193.713 382.228 193.028 381.913 192.292C381.64 191.48 381.412 190.654 381.228 189.818C380.915 188.201 380.915 186.54 381.228 184.923C381.475 183.453 382.07 182.063 382.965 180.871C383.919 179.602 385.141 178.56 386.544 177.818C388.191 176.919 389.966 176.28 391.807 175.923C393.782 175.528 395.806 175.439 397.807 175.66C399.467 175.865 401.064 176.422 402.492 177.292C403.842 178.099 404.979 179.218 405.807 180.555C406.736 181.935 407.364 183.495 407.649 185.134C407.725 185.833 407.725 186.539 407.649 187.239C407.649 187.923 407.649 188.555 407.649 189.186C407.583 189.741 407.459 190.288 407.281 190.818C407.174 191.19 407.015 191.544 406.807 191.871L406.439 192.344C406.299 192.364 406.158 192.364 406.018 192.344C405.809 192.382 405.595 192.382 405.386 192.344H404.492H403.439C403.212 192.371 402.982 192.371 402.755 192.344C402.619 192.397 402.469 192.397 402.334 192.344C402.306 192.296 402.291 192.242 402.291 192.186C402.291 192.131 402.306 192.076 402.334 192.028C402.231 191.775 402.231 191.492 402.334 191.239L402.86 189.87C403.129 189.518 403.375 189.149 403.597 188.765C403.724 187.963 403.724 187.146 403.597 186.344C403.43 185.386 403.032 184.483 402.439 183.713C401.853 182.999 401.116 182.424 400.281 182.028C399.306 181.632 398.277 181.383 397.228 181.292C395.957 181.248 394.685 181.354 393.439 181.607C392.123 181.82 390.845 182.228 389.649 182.818C388.719 183.274 387.88 183.899 387.176 184.66C386.614 185.351 386.218 186.161 386.018 187.028C385.807 187.964 385.807 188.935 386.018 189.87C386.144 190.699 386.411 191.5 386.807 192.239C387.115 192.793 387.467 193.321 387.86 193.818C388.135 194.187 388.453 194.523 388.807 194.818C389.012 195.01 389.173 195.243 389.281 195.502C389.281 195.502 389.281 195.765 389.281 195.818C389.281 195.871 389.281 195.818 389.281 196.081H388.597H387.492M386.492 134.344L384.65 132.449C384.279 131.683 383.8 130.974 383.228 130.344C382.846 129.984 382.4 129.698 381.913 129.502C381.445 129.399 380.96 129.399 380.492 129.502C379.977 129.603 379.48 129.781 379.018 130.028C378.573 130.288 378.166 130.607 377.807 130.976C377.524 131.421 377.344 131.925 377.281 132.449C377.173 132.97 377.173 133.508 377.281 134.028C377.469 134.83 377.789 135.595 378.228 136.292L379.544 138.765L386.492 134.344ZM370.334 149.134C370.198 149.187 370.048 149.187 369.913 149.134C369.913 149.134 369.913 149.134 369.492 148.871L369.018 148.239C368.762 147.889 368.533 147.519 368.334 147.134L367.807 146.028C367.761 145.767 367.761 145.5 367.807 145.239C367.755 145.067 367.755 144.884 367.807 144.713C367.779 144.627 367.779 144.535 367.807 144.449L376.334 139.818L375.439 138.081C375.16 137.529 374.786 137.03 374.334 136.607C373.999 136.285 373.579 136.066 373.123 135.976C372.618 135.888 372.102 135.888 371.597 135.976H369.702L363.281 137.713C363.128 137.769 362.96 137.769 362.807 137.713C362.807 137.713 362.492 137.713 362.334 137.449C362.115 137.244 361.921 137.015 361.755 136.765C361.755 136.449 361.334 136.028 361.071 135.555C360.837 135.128 360.626 134.688 360.439 134.239C360.385 133.979 360.385 133.71 360.439 133.449C360.406 133.293 360.406 133.132 360.439 132.976H360.913H361.807L367.071 132.239H368.965C369.491 132.208 370.018 132.208 370.544 132.239C371.02 132.333 371.481 132.492 371.913 132.713C372.345 132.876 372.739 133.127 373.071 133.449C372.993 132.662 372.993 131.869 373.071 131.081C373.099 130.379 373.241 129.685 373.492 129.028C373.778 128.389 374.169 127.802 374.65 127.292C375.197 126.729 375.838 126.265 376.544 125.923C377.496 125.371 378.555 125.03 379.649 124.923C380.669 124.826 381.696 124.97 382.649 125.344C383.69 125.795 384.636 126.438 385.439 127.239C386.589 128.487 387.563 129.886 388.334 131.397L391.334 137.028C391.486 137.399 391.486 137.815 391.334 138.186C391.264 138.4 391.147 138.596 390.992 138.76C390.838 138.924 390.649 139.052 390.439 139.134L370.334 149.134ZM367.544 106.502L356.228 110.871L360.544 116.66L367.544 106.502ZM359.807 127.555C359.614 127.892 359.365 128.195 359.071 128.449C359.003 128.541 358.916 128.616 358.816 128.671C358.716 128.725 358.605 128.757 358.492 128.765C358.226 128.669 357.991 128.506 357.807 128.292L356.228 127.713L355.281 126.449C355.101 126.209 354.959 125.943 354.86 125.66C354.823 125.587 354.804 125.505 354.804 125.423C354.804 125.341 354.823 125.26 354.86 125.186C354.831 125.12 354.816 125.048 354.816 124.976C354.816 124.903 354.831 124.832 354.86 124.765L357.86 120.186L352.123 112.449L346.86 114.292H346.334H345.86C345.622 114.152 345.409 113.974 345.228 113.765L344.334 112.66L343.702 111.397C343.618 111.14 343.618 110.864 343.702 110.607C343.775 110.401 343.927 110.231 344.123 110.134L345.228 109.66L368.334 101.818H368.965C369.156 101.775 369.354 101.775 369.544 101.818C369.798 102.019 370.028 102.248 370.228 102.502C370.544 102.818 370.86 103.239 371.281 103.765L372.439 105.292C372.652 105.585 372.829 105.903 372.965 106.239C373.038 106.461 373.038 106.701 372.965 106.923C372.89 107.131 372.784 107.326 372.65 107.502L359.807 127.555ZM349.281 89.2389C349.614 88.8745 349.897 88.4674 350.123 88.0284C350.226 87.6136 350.226 87.1801 350.123 86.7653C350.06 86.3146 349.898 85.8834 349.65 85.5021C349.299 84.9388 348.874 84.4254 348.386 83.9758L345.702 82.8179L341.123 87.7126L343.281 89.7653C343.724 90.2037 344.24 90.5601 344.807 90.8179C345.258 90.9197 345.725 90.9197 346.176 90.8179C346.599 90.8136 347.015 90.7051 347.386 90.5021C347.792 90.2977 348.151 90.0109 348.439 89.66M341.86 98.7126C342.213 98.2945 342.513 97.835 342.755 97.3442C342.856 96.8581 342.856 96.3566 342.755 95.8705C342.681 95.3079 342.483 94.7687 342.176 94.2916C341.76 93.6059 341.226 92.9999 340.597 92.5021L338.597 90.3442L333.334 95.6074L336.123 98.1863C336.561 98.6436 337.078 99.018 337.65 99.2916C338.09 99.5267 338.573 99.67 339.071 99.7126C339.539 99.8121 340.023 99.8121 340.492 99.7126C340.971 99.5058 341.401 99.201 341.755 98.8179M345.86 102.449C345.289 103.066 344.634 103.597 343.913 104.028C343.246 104.398 342.512 104.63 341.755 104.713C341.024 104.844 340.275 104.844 339.544 104.713C338.784 104.593 338.042 104.381 337.334 104.081C336.591 103.761 335.87 103.392 335.176 102.976C334.409 102.418 333.671 101.82 332.965 101.186L327.965 96.4495C327.803 96.3223 327.667 96.1634 327.568 95.9825C327.468 95.8016 327.407 95.6023 327.386 95.3968C327.377 95.1607 327.42 94.9255 327.511 94.7074C327.602 94.4893 327.739 94.2936 327.913 94.1337L343.386 77.5547C343.531 77.3724 343.715 77.2254 343.925 77.1251C344.134 77.0248 344.364 76.9737 344.597 76.9758C345.013 76.9817 345.411 77.152 345.702 77.4495L350.439 81.8705C351.47 82.7791 352.373 83.8238 353.123 84.9758C353.736 85.8061 354.167 86.7567 354.386 87.7653C354.597 88.6476 354.597 89.5671 354.386 90.4495C354.083 91.4119 353.54 92.2813 352.807 92.9758C352.403 93.4192 351.943 93.8084 351.439 94.1337C350.957 94.4421 350.422 94.6564 349.86 94.7653C349.319 94.8437 348.77 94.8437 348.228 94.7653C347.651 94.6999 347.085 94.5583 346.544 94.3442C346.959 94.9291 347.296 95.5662 347.544 96.2389C347.752 96.9035 347.858 97.5954 347.86 98.2916C347.803 99.0123 347.644 99.7213 347.386 100.397C347.055 101.157 346.592 101.852 346.018 102.449M324.65 77.239C325.33 76.1898 325.911 75.0798 326.386 73.9232C326.826 72.9835 327.059 71.9606 327.071 70.9232C327.086 69.9834 326.85 69.0566 326.386 68.239C325.79 67.2912 324.979 66.4977 324.018 65.9232C323.173 65.2984 322.179 64.9064 321.136 64.7863C320.092 64.6663 319.035 64.8223 318.071 65.239C317.13 65.6832 316.275 66.2888 315.544 67.0284C314.713 67.8605 313.972 68.7779 313.334 69.7653C312.626 70.8256 312.027 71.954 311.544 73.1337C311.105 74.0733 310.871 75.0963 310.86 76.1337C310.825 77.0756 311.063 78.0077 311.544 78.8179C312.155 79.7539 312.963 80.5445 313.913 81.1337C314.834 81.7742 315.902 82.1724 317.018 82.2916C317.989 82.3492 318.96 82.1873 319.86 81.8179C320.824 81.3883 321.699 80.7813 322.439 80.0284C323.258 79.1667 323.998 78.2331 324.65 77.239ZM329.439 80.0284C328.38 81.6809 327.085 83.1702 325.597 84.4495C324.316 85.5137 322.828 86.3021 321.228 86.7653C319.653 87.1333 318.014 87.1333 316.439 86.7653C314.558 86.4039 312.769 85.6702 311.176 84.6074C309.66 83.6352 308.31 82.4269 307.176 81.0284C306.246 79.8246 305.615 78.4178 305.334 76.9232C305.111 75.3328 305.255 73.7125 305.755 72.1863C306.359 70.3082 307.246 68.5333 308.386 66.9232C309.396 65.2801 310.677 63.8206 312.176 62.6074C313.428 61.5413 314.903 60.7681 316.492 60.3442C318.064 59.9498 319.709 59.9498 321.281 60.3442C323.165 60.6943 324.957 61.4289 326.544 62.5021C328.053 63.4413 329.389 64.6343 330.492 66.0284C331.441 67.22 332.075 68.632 332.334 70.1337C332.582 71.699 332.475 73.3002 332.018 74.8179C331.427 76.6915 330.557 78.4656 329.439 80.0811M308.86 54.9232C308.736 55.238 308.577 55.5381 308.386 55.8179C308.287 56.0225 308.143 56.2024 307.965 56.3442C307.844 56.3733 307.718 56.3733 307.597 56.3442C307.478 56.3886 307.347 56.3886 307.228 56.3442L299.386 52.7653L290.597 71.8179C290.629 71.9207 290.629 72.0309 290.597 72.1337H290.123H289.334L288.123 71.6074L287.018 71.0284C286.758 70.9232 286.524 70.7614 286.334 70.5547C286.196 70.4419 286.088 70.2974 286.018 70.1337C286.018 70.1337 286.018 70.1337 286.018 69.7653L295.807 48.239C295.971 47.819 296.292 47.4793 296.702 47.2916C297.091 47.1364 297.524 47.1364 297.913 47.2916L309.176 52.5548C309.176 52.5548 309.492 52.8705 309.492 53.239C309.436 53.8145 309.257 54.3711 308.965 54.8705M277.86 53.5021C278.226 52.3037 278.456 51.0678 278.544 49.8179C278.65 48.7929 278.561 47.7571 278.281 46.7653C278.003 45.8766 277.495 45.0775 276.807 44.4495C275.967 43.7445 274.977 43.2405 273.913 42.9758C272.811 42.6655 271.646 42.6655 270.544 42.9758C269.603 43.1884 268.732 43.6418 268.018 44.2916C267.238 44.9703 266.595 45.7921 266.123 46.7126C265.608 47.7614 265.185 48.8533 264.86 49.9758C264.522 51.1299 264.275 52.309 264.123 53.5021C263.929 54.5104 263.929 55.5465 264.123 56.5548C264.393 57.4624 264.902 58.2806 265.597 58.9232C266.456 59.6306 267.463 60.1344 268.544 60.3969C269.632 60.6776 270.773 60.6776 271.86 60.3969C272.81 60.1639 273.693 59.7134 274.439 59.0811C275.209 58.3522 275.85 57.498 276.334 56.5548C276.934 55.5853 277.444 54.5636 277.86 53.5021ZM283.123 54.7653C282.603 56.6286 281.804 58.4029 280.755 60.0284C279.918 61.6101 278.73 62.9787 277.281 64.0284C275.902 64.8626 274.357 65.3837 272.755 65.5547C270.98 65.692 269.195 65.4956 267.492 64.9758C265.749 64.5162 264.094 63.7692 262.597 62.7653C261.332 61.9102 260.3 60.7522 259.597 59.3969C258.906 57.9693 258.546 56.404 258.544 54.8179C258.566 52.8036 258.867 50.802 259.439 48.8705C259.956 47.0145 260.735 45.2421 261.755 43.6074C262.663 42.2242 263.845 41.042 265.229 40.1337C266.6 39.2848 268.149 38.7626 269.755 38.6074C271.53 38.4489 273.319 38.6458 275.018 39.1863C276.738 39.6386 278.374 40.3674 279.86 41.3442C281.111 42.2009 282.124 43.3596 282.807 44.7126C283.509 46.1199 283.887 47.6666 283.913 49.239C283.944 51.236 283.66 53.2255 283.071 55.1337M249.492 59.6074C249.521 59.7106 249.521 59.8199 249.492 59.9232C249.336 59.9611 249.174 59.9611 249.018 59.9232H248.229H246.913H245.65H244.86C244.705 59.8625 244.575 59.7512 244.492 59.6074C244.453 59.5537 244.432 59.4893 244.432 59.4232C244.432 59.3571 244.453 59.2926 244.492 59.239L246.492 38.1863L240.913 37.66C240.229 40.7126 239.597 43.2916 239.018 45.5548C238.439 47.8179 237.807 49.7126 237.176 51.3442C236.715 52.6837 236.115 53.9713 235.386 55.1863C234.856 56.0672 234.159 56.836 233.334 57.4495C232.629 58.0004 231.796 58.3626 230.913 58.5021C229.951 58.6126 228.98 58.6126 228.018 58.5021H227.492L227.176 58.1863C227.142 57.9595 227.142 57.7289 227.176 57.5021C227.149 57.1693 227.149 56.8349 227.176 56.5021C227.176 55.9232 227.176 55.4495 227.176 55.1337C227.101 54.8758 227.101 54.6021 227.176 54.3442C227.167 54.1598 227.218 53.9775 227.323 53.8253C227.428 53.6732 227.579 53.5596 227.755 53.5021H228.176C228.576 53.5802 228.987 53.5802 229.386 53.5021C229.841 53.28 230.251 52.9768 230.597 52.6074C231.062 51.9899 231.451 51.3183 231.755 50.6074C232.321 49.5021 232.763 48.337 233.071 47.1337C233.544 45.7653 234.018 43.9758 234.544 41.8705C235.071 39.7653 235.597 37.2916 236.176 34.4495C236.269 33.9318 236.486 33.4443 236.807 33.0284C237.162 32.8851 237.558 32.8851 237.913 33.0284L250.65 34.239C250.853 34.2429 251.053 34.2921 251.235 34.3832C251.417 34.4742 251.577 34.6048 251.702 34.7653C251.792 34.9636 251.839 35.179 251.839 35.3969C251.839 35.6147 251.792 35.8301 251.702 36.0284L249.492 59.6074ZM210.439 37.7127L207.597 48.9758L214.965 48.4495L210.439 37.7127ZM223.807 55.8179C223.807 56.2916 224.123 56.7126 224.176 56.9758C224.231 57.0718 224.261 57.1807 224.261 57.2916C224.261 57.4025 224.231 57.5114 224.176 57.6074C223.982 57.8057 223.717 57.9192 223.439 57.9232H221.86H220.281H219.386H218.965C218.955 57.783 218.955 57.6423 218.965 57.5021L216.86 52.239L206.755 53.5021L205.492 58.7653C205.521 58.9395 205.521 59.1174 205.492 59.2916C205.408 59.4354 205.278 59.5467 205.123 59.6074H204.281H202.913H201.439C201.169 59.6176 200.905 59.5234 200.702 59.3442C200.655 59.2455 200.631 59.1377 200.631 59.0284C200.631 58.9192 200.655 58.8113 200.702 58.7126C200.644 58.3289 200.644 57.9385 200.702 57.5548L206.807 34.0284C206.769 33.8374 206.769 33.6406 206.807 33.4495C206.93 33.2872 207.094 33.1601 207.281 33.0811C207.596 33.0397 207.914 33.0397 208.229 33.0811H209.913H211.755H212.913C213.135 33.1216 213.338 33.2323 213.492 33.3969C213.63 33.5699 213.737 33.7659 213.807 33.9758L223.807 55.8179ZM194.965 59.8179C195.018 59.9533 195.018 60.1036 194.965 60.239L194.65 60.6074L193.86 60.9232C193.478 61.107 193.07 61.2313 192.65 61.2916C192.238 61.4192 191.815 61.5073 191.386 61.5547H190.597C190.425 61.6075 190.242 61.6075 190.071 61.5547C190.046 61.4509 190.046 61.3428 190.071 61.239L187.281 51.0284L177.86 53.5021L180.386 63.7126C180.411 63.7709 180.424 63.8336 180.424 63.8969C180.424 63.9601 180.411 64.0228 180.386 64.0811L180.018 64.4495L179.281 64.8179L178.071 65.1863H176.807C176.528 65.2289 176.244 65.2289 175.965 65.1863C175.81 65.2243 175.647 65.2243 175.492 65.1863C175.468 65.137 175.456 65.083 175.456 65.0284C175.456 64.9738 175.468 64.9199 175.492 64.8705L169.281 41.0284C169.26 40.9066 169.26 40.7819 169.281 40.66L169.597 40.2916L170.386 39.9758L171.597 39.5548H172.86H173.702C173.854 39.4933 174.024 39.4933 174.176 39.5548V39.8705L176.492 49.1337L185.913 46.7653L183.597 37.5021C183.572 37.4438 183.56 37.3812 183.56 37.3179C183.56 37.2546 183.572 37.192 183.597 37.1337C183.67 36.9868 183.779 36.8603 183.913 36.7653L184.65 36.3969L185.913 36.0284L187.176 35.7653H187.965C188.117 35.7038 188.287 35.7038 188.439 35.7653H188.702L194.965 59.8179ZM130.439 62.3969L128.176 64.0284C127.412 64.4421 126.719 64.9751 126.123 65.6074C125.768 65.995 125.514 66.4654 125.386 66.9758C125.256 67.4405 125.256 67.9321 125.386 68.3969C125.552 68.8891 125.764 69.3649 126.018 69.8179C126.298 70.2627 126.654 70.6547 127.071 70.9758C127.462 71.2612 127.911 71.4587 128.386 71.5547C128.908 71.6583 129.444 71.6583 129.965 71.5547C130.743 71.2957 131.485 70.9422 132.176 70.5021L134.544 68.9758L130.439 62.3969ZM146.229 77.5547C146.253 77.613 146.266 77.6757 146.266 77.739C146.266 77.8022 146.253 77.8649 146.229 77.9232C146.277 78.0594 146.277 78.208 146.229 78.3442L145.65 78.9232L144.597 79.66L143.492 80.2916L142.702 80.6074H142.176C142.148 80.5219 142.148 80.4297 142.176 80.3442L136.913 72.1337L135.281 73.1863C134.735 73.496 134.253 73.9068 133.86 74.3969C133.584 74.7551 133.387 75.1676 133.281 75.6074C133.201 76.113 133.201 76.628 133.281 77.1337C133.344 77.7717 133.449 78.4047 133.597 79.0284L134.965 84.8179V85.3442C134.889 85.5352 134.782 85.7129 134.65 85.8705L134.018 86.4495L132.86 87.1863C132.459 87.465 132.037 87.7114 131.597 87.9232L130.808 88.239H129.913H129.65V87.7653C129.54 87.4738 129.452 87.1748 129.386 86.8705L128.334 81.6074C128.179 80.9869 128.091 80.3517 128.071 79.7126C128.018 79.1701 128.018 78.6236 128.071 78.0811C128.163 77.6172 128.286 77.16 128.439 76.7126C128.613 76.2806 128.843 75.8736 129.123 75.5021C128.371 75.7346 127.594 75.876 126.808 75.9232C126.112 76.0555 125.398 76.0555 124.702 75.9232C124.042 75.6946 123.433 75.3367 122.913 74.8705C122.3 74.3714 121.783 73.7651 121.386 73.0811C120.783 72.1739 120.371 71.1531 120.176 70.0811C119.998 69.0579 120.089 68.0061 120.439 67.0284C120.816 65.9516 121.387 64.9528 122.123 64.0811C123.298 62.8632 124.625 61.8018 126.071 60.9232L131.334 57.5548C131.692 57.4344 132.08 57.4344 132.439 57.5548C132.669 57.6013 132.884 57.7019 133.067 57.8484C133.25 57.9949 133.396 58.1829 133.492 58.3969L146.229 77.5547ZM104.123 83.1337L108.755 93.66L114.123 88.9758L104.123 83.1337ZM125.702 89.4495C126.064 89.6322 126.401 89.8623 126.702 90.1337C126.796 90.199 126.874 90.2854 126.929 90.3859C126.983 90.4864 127.014 90.5982 127.018 90.7126C126.946 90.9765 126.8 91.214 126.597 91.3968C126.597 91.7126 125.965 92.0284 125.492 92.5021C125.095 92.8654 124.673 93.1996 124.229 93.5021L123.544 94.0284C123.372 94.073 123.191 94.073 123.018 94.0284H122.597L117.808 91.2916L110.544 97.7653L112.702 102.66C112.722 102.835 112.722 103.011 112.702 103.186C112.739 103.26 112.759 103.341 112.759 103.423C112.759 103.505 112.739 103.587 112.702 103.66C112.566 103.915 112.388 104.147 112.176 104.344C112.176 104.607 111.597 104.923 111.176 105.344L110.071 106.239C109.859 106.402 109.601 106.495 109.334 106.502C109.134 106.446 108.963 106.314 108.86 106.134C108.643 105.806 108.466 105.452 108.334 105.081L98.9654 82.5021C98.8638 82.3261 98.8103 82.1264 98.8103 81.9232C98.8103 81.7199 98.8638 81.5202 98.9654 81.3442L99.597 80.5547L100.808 79.4495L102.229 78.239C102.509 77.9799 102.829 77.7668 103.176 77.6074C103.384 77.5648 103.599 77.5648 103.808 77.6074L104.439 77.8705L125.702 89.4495ZM105.229 110.186C105.252 110.236 105.264 110.29 105.264 110.344C105.264 110.399 105.252 110.453 105.229 110.502C105.278 110.674 105.278 110.857 105.229 111.028L104.86 111.713C104.644 112.083 104.397 112.435 104.123 112.765L103.229 113.713C103.065 113.918 102.869 114.095 102.65 114.239C102.497 114.295 102.329 114.295 102.176 114.239C102.119 114.267 102.056 114.281 101.992 114.281C101.928 114.281 101.865 114.267 101.808 114.239L93.4917 107.713L87.4391 115.344L95.6496 121.923C95.673 121.972 95.6852 122.026 95.6852 122.081C95.6852 122.136 95.673 122.19 95.6496 122.239C95.6496 122.239 95.6496 122.502 95.6496 122.713C95.559 122.973 95.4352 123.221 95.2812 123.449C95.0646 123.82 94.8182 124.172 94.5444 124.502C94.2724 124.842 93.9732 125.159 93.6496 125.449C93.4815 125.67 93.2656 125.85 93.0181 125.976C92.8818 126.024 92.7332 126.024 92.597 125.976C92.5387 126 92.4761 126.013 92.4128 126.013C92.3495 126.013 92.2869 126 92.2286 125.976L73.176 110.713C73.0619 110.632 72.9711 110.523 72.9128 110.397C72.8682 110.224 72.8682 110.043 72.9128 109.871C72.9128 109.871 72.9128 109.449 73.2812 109.134L74.0181 108.134L74.8602 107.134C75.0719 106.938 75.3009 106.762 75.5444 106.607H75.9654H76.3339L83.8075 112.607L89.8602 104.976L82.5444 98.9758C82.5444 98.9758 82.5444 98.9758 82.5444 98.66C82.4947 98.4881 82.4947 98.3056 82.5444 98.1337C82.6478 97.8957 82.771 97.6668 82.9128 97.4495C83.1369 97.071 83.4017 96.718 83.7023 96.3968L84.5444 95.3968L85.1233 94.8705H85.6496H86.0181L105.229 110.186ZM79.9654 131.923C79.4386 131.63 78.871 131.417 78.2812 131.292C77.781 131.16 77.2552 131.16 76.7549 131.292C76.1944 131.457 75.6865 131.765 75.2812 132.186C74.6409 132.835 74.1079 133.581 73.7023 134.397L72.0181 137.239L79.2812 141.292L80.8075 138.502C81.3055 137.691 81.6615 136.801 81.8602 135.871C82.0007 135.3 82.0007 134.704 81.8602 134.134C81.7133 133.635 81.4416 133.182 81.0707 132.818C80.7658 132.449 80.39 132.144 79.9654 131.923ZM82.2286 126.923C83.2196 127.514 84.1231 128.24 84.9128 129.081C85.6336 129.918 86.1555 130.908 86.4391 131.976C86.7037 133.207 86.7037 134.481 86.4391 135.713C86.0345 137.564 85.3419 139.34 84.3865 140.976L81.2286 146.66L80.8075 147.186C80.6547 147.243 80.4867 147.243 80.3339 147.186C80.1265 147.238 79.9097 147.238 79.7023 147.186C79.4589 147.233 79.2088 147.233 78.9654 147.186L58.2812 135.607V135.134C58.3484 134.84 58.4546 134.557 58.597 134.292C58.7597 133.908 58.9533 133.538 59.176 133.186C59.3603 132.804 59.5713 132.434 59.8075 132.081L60.3339 131.449C60.4701 131.401 60.6187 131.401 60.7549 131.449C60.8903 131.397 61.0406 131.397 61.176 131.449L68.8602 135.765L70.6496 132.555C71.3915 131.161 72.3115 129.869 73.3865 128.713C74.1721 127.904 75.1238 127.275 76.176 126.871C77.1473 126.496 78.1922 126.352 79.2286 126.449C80.3753 126.546 81.488 126.887 82.4918 127.449M76.4918 154.607C76.4918 154.607 76.4918 154.607 76.8075 154.607C77.1233 154.607 76.8075 154.871 76.8075 155.081C76.8239 155.361 76.8239 155.643 76.8075 155.923C76.6901 156.334 76.5495 156.738 76.3865 157.134C76.2557 157.547 76.0975 157.952 75.9128 158.344C75.8125 158.584 75.6891 158.813 75.5444 159.028C75.4315 159.166 75.2871 159.274 75.1233 159.344C75.0659 159.372 75.003 159.387 74.9391 159.387C74.8753 159.387 74.8123 159.372 74.7549 159.344L54.9128 152.449L53.0707 157.713C55.8602 159.134 58.3339 160.397 60.2286 161.502C62.1233 162.607 63.9654 163.713 65.4918 164.66C66.6639 165.488 67.7723 166.403 68.8075 167.397C69.5282 168.121 70.1003 168.979 70.4918 169.923C70.8555 170.75 71.0005 171.656 70.9128 172.555C70.8349 173.527 70.6224 174.483 70.2812 175.397C70.2055 175.544 70.1175 175.685 70.0181 175.818C69.975 175.893 69.914 175.956 69.8405 176.002C69.7671 176.048 69.6834 176.075 69.597 176.081C69.3899 176.135 69.1726 176.135 68.9654 176.081L67.9654 175.765L66.7549 175.239C66.4813 175.154 66.2297 175.011 66.0181 174.818C65.9245 174.812 65.8335 174.785 65.7516 174.74C65.6696 174.694 65.5989 174.631 65.5444 174.555C65.5188 174.433 65.5188 174.308 65.5444 174.186C65.6211 173.786 65.6211 173.376 65.5444 172.976C65.4813 172.475 65.2809 172.001 64.9654 171.607C64.493 170.981 63.945 170.415 63.3339 169.923C62.3854 169.151 61.3828 168.447 60.3339 167.818C59.0707 167.046 57.4918 166.151 55.597 165.134C53.7023 164.081 51.4391 162.976 48.8602 161.66C48.3782 161.486 47.9574 161.175 47.6497 160.765C47.5715 160.582 47.5312 160.385 47.5312 160.186C47.5312 159.987 47.5715 159.79 47.6497 159.607L51.9655 147.555C52.0274 147.359 52.1296 147.178 52.2656 147.024C52.4015 146.87 52.5682 146.746 52.7549 146.66C52.9533 146.57 53.1686 146.523 53.3865 146.523C53.6044 146.523 53.8197 146.57 54.0181 146.66L76.4918 154.607ZM46.0181 187.344L56.2286 192.923L57.4918 185.66L46.0181 187.344ZM67.0707 178.871C67.4731 178.829 67.8788 178.829 68.2812 178.871C68.2812 178.871 68.7549 178.871 68.8602 179.134C68.9654 179.397 68.8602 179.555 68.8602 179.923C68.8602 180.292 68.8602 180.818 68.8602 181.449C68.8602 182.081 68.597 182.66 68.5444 183.028C68.4918 183.397 68.5444 183.713 68.5444 183.923L68.2286 184.239C68.075 184.291 67.9085 184.291 67.7549 184.239L62.4918 185.028L60.8075 194.713L65.5444 197.186H65.9654C66.0034 197.342 66.0034 197.504 65.9654 197.66C66.0181 197.938 66.0181 198.224 65.9654 198.502C66.0048 198.957 66.0048 199.415 65.9654 199.871C65.8947 200.351 65.7891 200.826 65.6497 201.292C65.6401 201.425 65.6023 201.555 65.5388 201.673C65.4753 201.791 65.3875 201.894 65.2812 201.976C65.0603 202.056 64.818 202.056 64.597 201.976L63.5444 201.449L41.4391 189.976L40.9128 189.607C40.866 189.417 40.866 189.219 40.9128 189.028C40.8652 188.714 40.8652 188.395 40.9128 188.081C40.9128 187.66 40.9128 187.134 40.9128 186.449C40.9128 185.765 40.9128 185.028 41.2812 184.555C41.3644 184.198 41.4699 183.846 41.597 183.502C41.7098 183.322 41.8521 183.162 42.0181 183.028C42.2422 182.968 42.4782 182.968 42.7023 183.028L67.0707 178.871ZM46.8602 209.186C46.0812 209.111 45.2968 209.257 44.597 209.607C44.074 209.862 43.622 210.241 43.2812 210.713C42.9679 211.167 42.7693 211.691 42.7023 212.239C42.6453 212.764 42.6453 213.293 42.7023 213.818V216.081H51.4918V213.713C51.42 213.04 51.2424 212.383 50.9655 211.765C50.7882 211.241 50.4803 210.77 50.0707 210.397C49.6536 209.991 49.1497 209.685 48.597 209.502C48.0068 209.288 47.3829 209.181 46.7549 209.186M46.7549 203.607C48.073 203.635 49.375 203.902 50.597 204.397C51.6706 204.884 52.6232 205.603 53.3865 206.502C54.1841 207.451 54.7595 208.566 55.0707 209.765C55.4591 211.223 55.6189 212.732 55.5444 214.239V216.66H63.8602C63.9623 216.624 64.0738 216.624 64.176 216.66C64.2245 216.814 64.2245 216.979 64.176 217.134C64.1957 217.396 64.1957 217.66 64.176 217.923C64.2027 218.344 64.2027 218.766 64.176 219.186C64.2085 219.624 64.2085 220.064 64.176 220.502C64.2107 220.764 64.2107 221.03 64.176 221.292C64.2017 221.431 64.2017 221.573 64.176 221.713H63.8075L40.3865 221.081C40.1345 221.092 39.8831 221.05 39.6477 220.96C39.4123 220.869 39.198 220.731 39.0181 220.555C38.7027 220.19 38.5339 219.721 38.5444 219.239V213.081V211.344C38.6142 210.672 38.7197 210.005 38.8602 209.344C39.0828 208.537 39.4008 207.76 39.8076 207.028C40.2185 206.264 40.7724 205.585 41.4391 205.028C42.0925 204.448 42.8649 204.016 43.7023 203.765C44.6437 203.5 45.6192 203.376 46.597 203.397M62.3865 228.713H63.3865H64.0181C64.1392 228.684 64.2654 228.684 64.3865 228.713C64.4111 228.771 64.4238 228.834 64.4238 228.897C64.4238 228.96 64.4111 229.023 64.3865 229.081L65.9128 242.028C65.9485 242.44 65.8365 242.85 65.597 243.186C65.4663 243.374 65.2937 243.529 65.0927 243.639C64.8917 243.748 64.6679 243.81 64.4391 243.818L41.8602 246.397C41.6323 246.463 41.3912 246.468 41.1605 246.413C40.9299 246.358 40.7175 246.243 40.5444 246.081C40.259 245.818 40.0731 245.465 40.0181 245.081L38.8076 232.449C38.7829 232.346 38.7829 232.237 38.8076 232.134C38.8877 232.02 38.9967 231.929 39.1234 231.87C39.3321 231.832 39.5462 231.832 39.7549 231.87H40.7549H41.7023H42.3339C42.4534 231.83 42.5828 231.83 42.7023 231.87C42.7384 231.973 42.7384 232.084 42.7023 232.186L43.8076 241.397L50.0707 240.66L49.3865 232.765C49.3464 232.646 49.3464 232.516 49.3865 232.397L49.7023 232.134C49.8924 232.087 50.0911 232.087 50.2812 232.134H51.2286H52.8076H53.176V232.449L54.0707 240.239L61.4918 239.292L60.4391 229.976C60.4136 229.854 60.4136 229.729 60.4391 229.607C60.5193 229.493 60.6283 229.402 60.7549 229.344C60.9637 229.306 61.1777 229.306 61.3865 229.344H62.3339M48.3865 264.028L50.0707 269.87L55.3339 269.081L59.4391 268.66H62.5444H64.8602L66.7549 268.765L68.1233 269.239L65.176 259.081L48.3865 264.028ZM72.9128 248.239H73.2286C73.3491 248.205 73.4765 248.205 73.597 248.239C73.7339 248.432 73.8404 248.645 73.9128 248.87L74.2812 249.923C74.2812 250.397 74.2812 250.713 74.5444 251.028C74.5671 251.273 74.5671 251.52 74.5444 251.765C74.5743 251.904 74.5743 252.048 74.5444 252.186H74.2286L68.3339 253.87L73.0707 270.502L78.9128 269.292H79.2812C79.4281 269.365 79.5546 269.473 79.6496 269.607L79.9654 270.239L80.3339 271.292C80.3339 271.765 80.3339 272.134 80.597 272.449C80.6195 272.677 80.6195 272.906 80.597 273.134C80.6351 273.271 80.6351 273.417 80.597 273.555H80.2812L71.2812 276.134C71.1552 276.213 71.0092 276.255 70.8602 276.255C70.7112 276.255 70.5652 276.213 70.4391 276.134C70.3214 276.066 70.2188 275.975 70.1373 275.867C70.0559 275.758 69.9974 275.634 69.9654 275.502L69.597 274.555C69.0708 274.342 68.524 274.183 67.9654 274.081C67.3562 273.863 66.7173 273.738 66.0707 273.713H63.597H60.1233C58.8076 273.713 57.2286 274.028 55.3865 274.292C53.5444 274.555 51.4391 274.87 49.0181 275.292C48.5699 275.412 48.0978 275.412 47.6497 275.292C47.4659 275.217 47.3054 275.095 47.185 274.938C47.0647 274.78 46.9888 274.594 46.9655 274.397L43.2812 261.607C43.1889 261.428 43.1408 261.23 43.1408 261.028C43.1408 260.827 43.1889 260.628 43.2812 260.449C43.5288 260.082 43.9039 259.819 44.3339 259.713L63.6497 254.449L63.0181 252.344C62.949 252.215 62.9128 252.07 62.9128 251.923C62.9128 251.776 62.949 251.632 63.0181 251.502C63.0181 251.502 63.3865 251.186 63.7023 251.081L72.9128 248.239ZM74.2286 279.818L75.1233 279.449H75.7549H76.176H76.4391L82.0181 291.292C82.1464 291.667 82.1464 292.074 82.0181 292.449C81.9502 292.673 81.8283 292.877 81.663 293.042C81.4978 293.207 81.2943 293.329 81.0707 293.397L60.5444 303.081C60.3299 303.18 60.0965 303.231 59.8602 303.231C59.6239 303.231 59.3905 303.18 59.176 303.081C58.8098 302.901 58.5136 302.605 58.3339 302.239L53.0707 290.449C53.0461 290.346 53.0461 290.237 53.0707 290.134C53.0534 290.011 53.0534 289.887 53.0707 289.765L53.597 289.344L54.4918 288.87L55.3865 288.502H56.0181H56.2286L60.2286 296.87L65.9654 294.186L62.597 287.081C62.568 286.96 62.568 286.834 62.597 286.713V286.344L63.1233 285.923L63.9654 285.502L64.8602 285.134H65.4391H65.8602C65.8787 285.22 65.8787 285.31 65.8602 285.397L69.176 292.555L75.8075 289.397L71.8075 280.923C71.7829 280.865 71.7703 280.802 71.7703 280.739C71.7703 280.676 71.7829 280.613 71.8075 280.555C71.8075 280.555 71.8075 280.555 71.8075 280.186L72.3339 279.765L74.2286 279.818ZM78.3865 322.923C78.9754 323.591 79.6686 324.16 80.4391 324.607C81.058 324.998 81.7623 325.233 82.4918 325.292C83.1345 325.421 83.7964 325.421 84.4391 325.292C85.098 325.072 85.7193 324.752 86.2812 324.344C86.9481 323.883 87.55 323.334 88.0707 322.713C88.5273 322.202 88.8525 321.588 89.0181 320.923C89.176 320.23 89.176 319.511 89.0181 318.818C88.8496 317.928 88.5291 317.073 88.0707 316.292L78.3865 322.923ZM77.2812 310.607C76.6344 311.033 76.0499 311.547 75.5444 312.134C75.0877 312.644 74.7625 313.258 74.597 313.923C74.4373 314.616 74.4373 315.336 74.597 316.028C74.7655 316.919 75.086 317.773 75.5444 318.555L85.3339 311.765C84.7594 311.068 84.0641 310.479 83.2812 310.028C82.6676 309.692 81.9932 309.482 81.2973 309.41C80.6015 309.337 79.8982 309.405 79.2286 309.607C78.5514 309.846 77.9129 310.183 77.3339 310.607M74.0181 306.134C75.1191 305.328 76.3726 304.755 77.7023 304.449C78.9162 304.186 80.1726 304.186 81.3865 304.449C82.6897 304.73 83.9242 305.266 85.0181 306.028C86.3434 306.942 87.5309 308.041 88.5444 309.292L90.9654 307.555C91.1008 307.502 91.2511 307.502 91.3865 307.555C91.5227 307.507 91.6713 307.507 91.8075 307.555L92.3865 308.081L93.1233 309.134C93.3865 309.555 93.6496 309.87 93.8075 310.186C93.9362 310.403 94.0421 310.632 94.1233 310.87C94.1679 311.043 94.1679 311.224 94.1233 311.397C94.07 311.527 93.9782 311.637 93.8602 311.713L91.3865 313.449C92.2608 314.771 92.9514 316.205 93.4391 317.713C93.84 318.951 93.9657 320.262 93.8075 321.555C93.6453 322.783 93.1944 323.955 92.4918 324.976C91.6507 326.141 90.6186 327.155 89.4391 327.976C88.3638 328.736 87.1468 329.273 85.8602 329.555C84.6641 329.819 83.4247 329.819 82.2286 329.555C80.9284 329.293 79.6937 328.774 78.597 328.028C77.262 327.127 76.0728 326.026 75.0707 324.765L72.7023 326.397H72.3339C72.1944 326.419 72.0522 326.419 71.9128 326.397C71.7128 326.228 71.5359 326.033 71.3865 325.818C71.0838 325.518 70.8187 325.182 70.597 324.818L69.9128 323.765C69.7726 323.536 69.6663 323.288 69.597 323.028C69.56 322.955 69.5407 322.874 69.5407 322.792C69.5407 322.709 69.56 322.628 69.597 322.555L72.0181 320.818C71.2342 319.514 70.6154 318.117 70.176 316.66C69.7751 315.421 69.6494 314.11 69.8075 312.818C69.9262 311.588 70.3613 310.409 71.0707 309.397C71.8582 308.148 72.8553 307.044 74.0181 306.134Z"
    fill="white" />
  <path
    d="M307.123 342.66L306.334 341.713C304.768 340.195 302.882 339.048 300.814 338.355C298.747 337.663 296.55 337.443 294.386 337.713C291.259 337.76 288.149 338.184 285.123 338.976C282.123 339.713 278.386 340.923 273.913 342.449C273.442 341.448 272.821 340.526 272.071 339.713C269.763 337.694 267.058 336.182 264.129 335.276C261.201 334.369 258.115 334.088 255.071 334.449C240.598 335.222 226.361 338.443 212.965 343.976C203.718 347.8 193.861 349.939 183.86 350.291C173.942 350.063 164.32 346.874 156.228 341.134L152.597 338.976L148.018 336.239L147.176 341.502L137.702 397.081L141.123 398.555L142.755 388.923L150.492 342.081L154.123 344.239C160.279 348.312 167.157 351.17 174.386 352.66C177.547 353.229 180.753 353.511 183.965 353.502C194.383 353.143 204.652 350.914 214.281 346.923C227.282 341.582 241.089 338.469 255.123 337.713C257.435 337.671 259.745 337.865 262.018 338.291C264.843 338.64 267.472 339.918 269.492 341.923C270.716 343.267 271.425 345.001 271.492 346.818C277.018 344.976 282.018 343.186 286.018 342.291C288.754 341.586 291.562 341.197 294.386 341.134H296.86L298.439 341.397C299.62 341.616 300.757 342.025 301.807 342.607C302.913 343.186 305.123 341.134 305.123 341.134L295.492 404.291L298.702 402.923C298.965 401.397 299.176 399.818 299.439 398.134C300.492 391.66 301.334 386.976 301.334 386.923V385.713V384.239C302.071 379.765 302.755 375.344 303.439 371.186C305.386 358.765 307.071 348.66 307.281 347.186V345.976V344.344L307.123 342.66Z"
    fill="#0066B3" />
  <path
    d="M224.649 362.239C186.66 361.905 150.309 346.718 123.373 319.926C96.4378 293.133 81.0567 256.864 80.5203 218.877C79.9839 180.889 94.3348 144.2 120.503 116.658C146.671 89.1161 182.579 72.9083 220.544 71.5021H224.807C263.04 71.4498 299.755 86.4618 326.998 113.286C354.241 140.111 369.82 176.588 370.36 214.818C370.9 253.047 356.357 289.95 329.882 317.533C303.408 345.116 267.132 361.159 228.913 362.186H224.649M224.649 365.765H229.018C268.201 364.726 305.397 348.288 332.545 320.013C359.693 291.739 374.605 253.906 374.051 214.712C373.498 175.519 357.522 138.122 329.586 110.626C301.65 83.1301 264.005 67.7498 224.807 67.8179H220.439C180.922 68.3763 143.245 84.6099 115.697 112.948C88.1485 141.285 72.9858 179.406 73.5442 218.923C74.1025 258.44 90.3362 296.117 118.674 323.665C147.012 351.213 185.132 366.376 224.649 365.818"
    fill="white" />
  <path
    d="M255.123 337.712C257.658 337.403 260.23 337.612 262.682 338.326C265.134 339.041 267.415 340.247 269.386 341.87C270.634 343.241 271.345 345.017 271.386 346.87C276.965 344.976 281.913 343.186 286.018 342.291C288.754 341.586 291.562 341.197 294.386 341.134C300.807 341.134 302.334 342.449 302.807 342.923L305.123 341.239L292.176 423.555L288.702 421.607C286.801 420.626 284.683 420.137 282.544 420.186C274.07 421.141 265.816 423.507 258.123 427.186C252.466 429.854 246.537 431.901 240.439 433.291C238.802 433.547 237.149 433.688 235.492 433.712C227.86 433.712 226.649 429.607 226.492 427.555L226.965 423.291L220.86 425.607C216.807 427.186 212.965 428.66 209.597 429.818C202.804 432.039 195.691 433.124 188.544 433.028C171.053 433.306 153.86 428.478 139.071 419.134L137.702 418.134L150.281 342.081L153.913 344.239C162.801 350.298 173.314 353.527 184.071 353.502C194.488 353.143 204.757 350.914 214.386 346.923C227.355 341.599 241.125 338.485 255.123 337.712Z"
    fill="white" />
  <path
    d="M233.491 396.081L229.333 425.976C228.228 431.239 234.596 431.239 239.86 430.555C253.491 428.502 277.333 412.186 289.86 419.186C291.702 404.291 295.123 385.239 295.123 385.239C295.123 385.239 292.018 380.923 280.281 383.765C268.544 386.607 242.333 397.87 233.544 396.081"
    fill="#ED1C24" />
  <path
    d="M293.755 393.818C295.07 385.502 296.439 376.607 297.702 368.713C295.32 367.521 292.724 366.819 290.066 366.647C287.409 366.476 284.744 366.838 282.228 367.713C270.807 370.502 245.807 381.134 236.386 380.134L232.913 402.397C233.965 406.028 238.176 406.923 243.755 406.449C257.386 405.344 281.176 387.291 293.755 393.818Z"
    fill="#0066B3" />
  <path
    d="M229.018 427.923C229.86 422.239 237.702 422.028 242.86 422.291C248.018 422.555 257.597 422.291 258.386 418.239C259.333 412.66 259.754 405.818 259.754 405.818L232.491 406.134L229.018 427.923Z"
    fill="#BE1E2D" />
  <path
    d="M140.86 416.923L147.176 379.134C158.176 385.66 175.439 394.923 210.702 381.397C238.965 370.555 265.228 368.607 263.965 379.818L258.176 418.502C260.281 405.239 226.597 421.081 208.755 427.291C189.544 433.976 157.807 429.134 140.86 416.765"
    fill="#ED1C24" />
  <path
    d="M211.965 373.555C177.86 386.607 159.965 374.976 148.807 368.291L144.702 392.765C154.572 399.211 165.86 403.162 177.595 404.281C189.33 405.399 201.161 403.651 212.071 399.186C227.86 393.081 258.755 382.449 262.176 391.976C263.386 383.976 264.597 375.502 265.649 368.134C261.281 360.923 236.913 363.923 211.86 373.397"
    fill="#0066B3" />
  <path
    d="M291.439 240.66C291.439 240.344 290.807 239.134 290.07 237.502C290.68 237.86 291.313 238.176 291.965 238.449L293.123 240.502C292.568 240.569 292.021 240.692 291.491 240.87M278.018 240.87C278.018 238.081 277.333 236.292 276.491 230.344C277.927 234.112 279.14 237.96 280.123 241.87C279.441 241.57 278.737 241.324 278.018 241.134M272.018 275.081C272.018 275.081 272.018 275.081 272.018 275.502ZM272.018 279.239C272.039 279.029 272.039 278.817 272.018 278.607C271.988 278.782 271.988 278.959 272.018 279.134M290.86 297.923L287.807 304.607L284.281 302.923L286.649 297.66C288.134 297.853 289.638 297.853 291.123 297.66M294.386 296.713L293.544 298.502L291.596 297.607C292.558 297.42 293.495 297.12 294.386 296.713ZM187.807 314.081C187.978 313.425 188.345 312.837 188.86 312.397C188.794 312.78 188.794 313.171 188.86 313.555L187.807 314.081ZM177.491 278.818C177.521 278.644 177.521 278.466 177.491 278.292C177.519 278.501 177.519 278.714 177.491 278.923M163.123 252.976L159.123 251.134C158.91 250.171 158.489 249.267 157.889 248.485C157.289 247.702 156.524 247.062 155.649 246.607C155.979 245.964 156.114 245.238 156.04 244.519C155.965 243.799 155.683 243.117 155.228 242.555C157.333 239.87 160.912 232.028 164.912 225.713C164.018 232.502 152.439 241.502 161.597 248.081C167.597 247.186 170.807 240.028 173.175 230.186C174.333 232.502 167.123 242.66 176.912 245.976C181.228 245.186 184.386 236.818 183.281 230.555C183.762 230.872 184.219 231.224 184.649 231.607C185.965 230.186 188.596 230.186 189.544 228.344L190.439 228.923C193.386 233.818 193.596 243.081 189.544 246.449C190.747 246.511 191.95 246.314 193.07 245.87C193.07 245.87 193.07 245.87 192.544 246.713L192.175 247.292C189.912 249.449 189.281 250.028 182.702 249.081C182.785 249.805 183.018 250.504 183.386 251.134C180.123 252.502 174.807 252.292 173.333 261.239C173.253 261.125 173.144 261.034 173.018 260.976H172.754C172.754 260.976 172.333 260.976 172.281 260.607C172.228 260.239 172.281 260.186 171.912 260.081H170.596L169.597 260.765C168.754 261.134 168.86 260.292 167.386 262.397C167.386 262.397 167.386 262.397 167.386 263.239H167.018L165.649 262.555C165.225 262.431 164.818 262.254 164.439 262.028L162.807 261.555L163.597 261.923L165.439 262.765L166.544 263.239L166.754 264.028L162.333 261.976H162.07C161.742 261.772 161.388 261.613 161.018 261.502L159.386 261.028L163.123 252.976ZM302.491 234.081C302.387 234.37 302.387 234.687 302.491 234.976L302.017 234.292C302.113 233.767 302.31 233.267 302.596 232.818L302.912 233.186C302.699 233.445 302.554 233.752 302.491 234.081ZM288.544 234.081L289.912 234.607L290.754 236.186H289.544L288.544 233.976M259.965 249.292C258.468 248.6 257.259 247.409 256.544 245.923C257.664 246.366 258.867 246.564 260.07 246.502C256.018 243.134 256.228 233.87 259.175 228.976L260.07 228.397C261.018 230.239 263.649 230.239 264.965 231.66C265.395 231.276 265.852 230.925 266.333 230.607C266.375 234.337 266.621 238.062 267.07 241.765C263.945 243.433 261.45 246.076 259.965 249.292ZM274.386 305.081L267.439 301.87L272.018 291.607C274.025 293.241 276.215 294.637 278.544 295.765L274.386 305.081ZM177.702 277.239V277.818C177.721 277.678 177.721 277.537 177.702 277.397M298.754 229.555L300.386 230.028L300.807 230.555L299.123 230.081C299.031 229.886 298.906 229.708 298.754 229.555ZM286.333 229.555L287.281 230.081L288.333 231.976H287.439C287.088 231.134 286.719 230.344 286.333 229.607M267.123 277.765C267.099 278.01 267.099 278.257 267.123 278.502C267.152 278.257 267.152 278.01 267.123 277.765ZM247.807 309.713L250.965 311.397C250.965 311.397 250.018 312.66 246.754 312.66C246.73 311.775 246.625 310.894 246.439 310.028H247.596M216.018 303.397L218.965 301.923C218.377 304.474 217.938 307.058 217.649 309.66C216.686 309.739 215.718 309.739 214.754 309.66C214.972 307.519 215.395 305.404 216.018 303.344M198.912 311.397L200.596 310.555C200.566 311.168 200.566 311.783 200.596 312.397C200.279 312.346 199.976 312.231 199.704 312.059C199.433 311.887 199.199 311.662 199.018 311.397M218.702 295.976L220.228 296.66C220.203 296.923 220.203 297.187 220.228 297.449L217.807 298.66C218.123 297.765 218.491 296.87 218.86 295.976M249.912 266.186C245.067 265.655 240.199 266.971 236.281 269.87C236.8 268.608 237.602 267.481 238.627 266.578C239.651 265.675 240.869 265.021 242.187 264.664C243.505 264.308 244.888 264.26 246.227 264.524C247.567 264.788 248.828 265.357 249.912 266.186ZM241.491 286.555C239.645 285.726 237.882 284.721 236.228 283.555H236.491H237.702C239.619 283.684 241.411 284.552 242.702 285.976L241.491 286.555ZM217.281 286.555H216.807C217.333 285.976 217.86 285.397 218.333 284.765C217.965 285.344 217.649 285.923 217.281 286.449M222.175 286.449C222.175 285.87 222.544 285.292 222.649 284.713C222.649 285.292 222.649 285.87 222.649 286.449M237.333 292.344L239.175 291.449C241.339 292.947 243.303 294.716 245.018 296.713C242.563 295.777 240.202 294.614 237.965 293.239L237.333 292.449M236.018 289.134V289.292ZM227.228 285.081C227.453 286.113 227.734 287.132 228.07 288.134H227.649C227.649 287.186 227.333 286.239 227.228 285.239M243.544 274.186C244.649 277.87 246.754 281.239 254.491 277.765C254.483 278.491 254.724 279.197 255.175 279.765L243.386 285.607C243.386 281.923 240.544 280.344 238.123 278.66C238.965 277.502 238.123 276.976 243.386 273.923M243.386 273.923C245.352 273.398 247.42 273.398 249.386 273.923C248.479 274.466 247.443 274.752 246.386 274.752C245.329 274.752 244.293 274.466 243.386 273.923ZM257.123 277.449L257.86 278.028H258.175L256.386 278.923C256.602 278.469 256.849 278.029 257.123 277.607M256.228 295.291C252.911 292.713 249.391 290.407 245.702 288.397L260.649 280.923C260.974 283.495 260.748 286.106 259.986 288.583C259.223 291.061 257.942 293.347 256.228 295.291ZM211.018 284.292H210.754L210.228 284.028L211.491 283.66C212.018 283.66 211.965 283.66 214.018 283.344C213.399 283.842 212.748 284.299 212.07 284.713H211.544M205.754 282.028L205.018 281.66C205.018 281.66 205.018 281.66 204.544 281.66C204.544 281.66 204.544 281.66 204.018 281.66L203.333 281.292H202.86L200.912 279.818H200.649H200.123C202.86 279.292 204.123 279.818 206.333 274.555C199.386 278.186 194.175 265.028 208.018 265.344C214.544 268.713 217.228 277.555 207.175 283.292H206.649H206.175H205.702H205.175M198.333 308.66C198.303 308.468 198.303 308.273 198.333 308.081L198.702 308.397L198.333 308.66ZM170.228 264.87C170.216 265.063 170.216 265.257 170.228 265.449C170.228 265.449 170.228 265.449 169.912 265.449V265.134H170.175M217.544 319.344C216.361 318.487 215.522 317.237 215.175 315.818H217.386C217.277 316.973 217.277 318.136 217.386 319.292M231.439 306.607C232.106 305.506 232.704 304.363 233.228 303.186H233.491C233.07 306.87 238.018 310.291 232.07 318.976C232.378 314.738 232.166 310.478 231.439 306.292M279.175 264.976V265.292C279.175 265.292 279.175 266.449 279.175 267.134L275.544 269.028C275.489 268.644 275.489 268.254 275.544 267.87H275.807C275.998 267.909 276.195 267.909 276.386 267.87C276.965 267.87 276.702 268.134 278.596 266.397C278.866 266.151 279.035 265.813 279.07 265.449M292.017 220.87C292.596 221.344 294.333 223.397 296.439 226.134L295.281 225.713C294.102 224.253 293.012 222.724 292.017 221.134M284.491 226.397C284.736 226.726 284.948 227.078 285.123 227.449C284.95 227.112 284.809 226.76 284.702 226.397M148.544 232.818C148.054 232.767 147.56 232.767 147.07 232.818C150.702 228.449 156.333 221.607 157.597 220.713C157.123 221.713 152.333 228.028 148.702 233.028M140.228 265.87H138.439C138.372 266.729 138.011 267.539 137.417 268.163C136.822 268.786 136.03 269.185 135.175 269.292L134.597 268.976L134.123 268.555L133.702 268.028C133.356 267.346 133.21 266.58 133.281 265.818C133.332 265.051 133.648 264.325 134.175 263.765C133.78 263.387 133.411 262.983 133.07 262.555C132.759 262.118 132.478 261.661 132.228 261.186C131.048 258.802 130.786 256.067 131.491 253.502C132.343 251.403 133.798 249.603 135.671 248.329C137.544 247.056 139.752 246.365 142.018 246.344C142.439 245.502 142.018 245.186 146.018 243.765C146.018 244.502 148.07 244.713 146.439 248.66C147.634 250.084 148.432 251.8 148.749 253.632C149.066 255.464 148.893 257.348 148.246 259.091C147.598 260.835 146.501 262.376 145.065 263.557C143.629 264.739 141.906 265.519 140.07 265.818M220.439 127.186C223.348 127.358 226.266 127.358 229.175 127.186C234.317 131.65 240.512 134.73 247.175 136.134C242.97 136.407 238.748 135.944 234.702 134.765C234.702 137.397 240.544 140.449 244.281 141.239C241.472 141.601 238.618 141.201 236.018 140.081C237.238 142.046 239.096 143.532 241.281 144.292C239.589 146.02 237.522 147.336 235.241 148.139C232.96 148.942 230.524 149.21 228.123 148.923C228.81 149.757 229.695 150.406 230.697 150.811C231.699 151.215 232.786 151.362 233.86 151.239C228.74 158.412 225.567 166.79 224.649 175.555C223.717 166.843 220.584 158.511 215.544 151.344C216.625 151.472 217.722 151.327 218.733 150.922C219.744 150.518 220.638 149.867 221.333 149.028C218.939 149.332 216.507 149.071 214.231 148.267C211.956 147.463 209.9 146.137 208.228 144.397C210.397 143.608 212.246 142.129 213.491 140.186C210.89 141.306 208.036 141.706 205.228 141.344C208.965 140.555 214.649 137.502 214.807 134.871C210.743 136.052 206.504 136.515 202.281 136.239C209.018 134.853 215.277 131.732 220.439 127.186ZM272.018 276.344C271.974 276.047 271.974 275.746 272.018 275.449C271.966 275.556 271.94 275.673 271.94 275.792C271.94 275.91 271.966 276.027 272.018 276.134M272.018 276.607C271.948 276.737 271.912 276.882 271.912 277.028C271.912 277.175 271.948 277.32 272.018 277.449C271.965 277.083 271.965 276.711 272.018 276.344V276.607ZM337.07 186.344C333.319 184.566 329.134 183.908 325.018 184.449C328.07 183.691 330.854 182.106 333.064 179.868C335.274 177.63 336.824 174.827 337.544 171.765C333.846 170.84 329.978 170.84 326.281 171.765C328.866 170.355 331.043 168.3 332.601 165.802C334.159 163.303 335.046 160.444 335.175 157.502C330.869 157.397 326.598 158.298 322.702 160.134C331.228 155.449 334.281 144.344 329.754 138.028C327.175 139.555 315.123 151.818 313.175 153.186C320.807 142.976 331.386 131.449 319.386 118.923C313.82 130.249 307.212 141.032 299.649 151.134C299.17 150.473 298.513 149.962 297.754 149.66C295.826 154.885 292.538 159.5 288.228 163.028C287.914 162.17 287.489 161.356 286.965 160.607C256.228 179.397 282.544 211.397 256.544 199.134C257.782 198.928 258.941 198.388 259.896 197.572C260.85 196.756 261.563 195.695 261.958 194.503C262.354 193.312 262.416 192.035 262.139 190.81C261.862 189.586 261.256 188.46 260.386 187.555C258.018 188.976 256.439 193.607 247.912 187.186C248.824 187.648 249.846 187.848 250.865 187.764C251.883 187.679 252.859 187.314 253.682 186.709C254.506 186.103 255.145 185.282 255.53 184.334C255.914 183.387 256.028 182.352 255.86 181.344C243.754 187.502 242.228 166.397 253.386 157.66C254.596 160.081 267.754 152.818 268.86 164.081C273.754 161.292 271.965 156.818 265.702 155.081C270.965 155.976 284.86 167.923 285.86 152.66C283.544 158.186 274.491 153.818 265.123 152.66C267.211 151.354 269.679 150.794 272.126 151.072C274.573 151.349 276.854 152.447 278.596 154.186C279.929 153.007 280.847 151.432 281.218 149.691C281.589 147.951 281.391 146.138 280.655 144.519C279.919 142.899 278.682 141.558 277.128 140.693C275.573 139.828 273.782 139.484 272.018 139.713C272.057 139.405 272.015 139.093 271.897 138.806C271.78 138.52 271.589 138.269 271.345 138.078C271.101 137.887 270.812 137.762 270.505 137.717C270.199 137.671 269.885 137.706 269.596 137.818C269.611 137.568 269.566 137.319 269.465 137.09C269.365 136.862 269.211 136.66 269.018 136.502C278.86 137.397 287.491 127.923 282.649 114.607C285.208 116.164 288.024 117.251 290.965 117.818C294.544 124.081 284.386 131.66 292.123 140.765C292.223 141.581 292.117 142.408 291.813 143.172C291.51 143.935 291.019 144.61 290.386 145.134C293.702 144.344 298.912 142.292 293.86 132.976C294.702 138.607 302.386 129.765 302.86 138.239C313.386 129.765 295.596 132.607 299.754 126.713C303.123 121.976 305.807 117.344 293.754 114.765C291.07 105.292 269.123 104.239 276.175 121.713C278.175 125.871 280.386 133.028 268.123 135.344V134.134C269.965 130.818 274.544 121.449 264.754 119.713C264.175 119.397 264.754 119.713 262.596 119.713V120.555H261.965V119.397C261.965 118.976 263.333 118.66 261.965 116.081H262.702C262.173 115.568 261.697 115.004 261.281 114.397C261.88 114.804 262.443 115.262 262.965 115.765V110.502C262.436 111.013 261.873 111.488 261.281 111.923C261.682 111.304 262.159 110.739 262.702 110.239H257.439C257.966 110.753 258.442 111.317 258.86 111.923C258.256 111.481 257.676 111.006 257.123 110.502V115.765C257.647 115.229 258.23 114.752 258.86 114.344C258.425 114.937 257.95 115.5 257.439 116.028H258.175C258.175 116.555 256.807 116.818 258.175 119.344V120.502H257.491V119.66C256.544 119.397 257.491 119.66 255.386 119.66C250.86 121.765 246.123 123.923 251.965 134.081V134.871C245.847 132.548 240.287 128.961 235.649 124.344V120.923C239.333 116.081 245.649 100.607 231.491 98.5547C231.089 98.2743 230.624 98.0986 230.136 98.0434C229.649 97.9883 229.156 98.0555 228.702 98.239V99.5547H227.228V97.9232H226.439C226.439 97.4495 229.649 96.4495 226.965 92.3442H228.123C227.275 91.5468 226.579 90.6016 226.07 89.5548C227.112 90.049 228.057 90.7264 228.86 91.5547V85.0811C228.094 85.9286 227.163 86.6094 226.123 87.0811C226.607 86.0329 227.285 85.0862 228.123 84.2916H221.491C222.329 85.0862 223.007 86.0329 223.491 87.0811C222.443 86.5973 221.496 85.9185 220.702 85.0811V91.7126C221.524 90.908 222.465 90.2336 223.491 89.7126C223.021 90.7684 222.34 91.7175 221.491 92.5021H222.649C222.649 93.239 219.596 94.239 223.175 98.0811H222.333V99.7126H220.807V98.3968C220.352 98.2134 219.859 98.1462 219.372 98.2013C218.885 98.2564 218.42 98.4322 218.018 98.7126C208.491 100.66 205.965 109.239 213.86 121.081V124.555C209.305 129.249 203.744 132.848 197.596 135.081V134.292C199.439 130.976 204.018 121.607 194.175 119.871C193.649 119.555 194.175 119.871 192.07 119.871V120.713H191.439V119.555C191.439 119.134 192.754 118.818 191.439 116.239H192.175C191.664 115.71 191.19 115.148 190.754 114.555C191.373 114.978 191.954 115.453 192.491 115.976V110.713C191.951 111.231 191.37 111.706 190.754 112.134C191.156 111.515 191.633 110.949 192.175 110.449H186.912C187.456 110.948 187.933 111.514 188.333 112.134C187.718 111.706 187.137 111.231 186.596 110.713V115.976L188.333 114.607C187.917 115.215 187.441 115.779 186.912 116.292H187.807C187.807 116.818 186.491 117.081 187.807 119.607V120.765H187.175V119.923C186.175 119.66 187.175 119.923 185.018 119.923C180.491 122.028 175.702 124.239 181.596 134.344V135.555C163.386 138.607 186.018 89.7126 155.965 114.976C141.07 113.765 154.597 131.186 147.649 130.134C145.281 129.818 141.175 133.397 146.86 138.449C145.386 134.66 150.018 136.713 155.86 133.186C155.07 136.923 149.491 141.871 159.333 145.344C158.725 144.8 158.252 144.123 157.95 143.365C157.649 142.607 157.528 141.789 157.597 140.976C163.333 134.134 158.281 128.397 158.754 118.028C161.597 117.352 164.302 116.195 166.754 114.607C168.386 125.134 158.702 133.818 180.386 136.502C180.192 136.66 180.039 136.862 179.938 137.09C179.837 137.319 179.793 137.568 179.807 137.818C179.518 137.706 179.205 137.671 178.898 137.717C178.592 137.762 178.302 137.887 178.058 138.078C177.814 138.269 177.624 138.52 177.506 138.806C177.388 139.093 177.347 139.405 177.386 139.713C173.597 139.976 163.281 144.976 170.965 154.028C172.708 152.289 174.989 151.191 177.435 150.914C179.882 150.636 182.351 151.196 184.439 152.502C179.175 150.134 171.175 161.397 163.702 152.502C163.386 159.186 170.386 163.871 183.86 154.923C177.596 156.66 175.807 161.134 180.702 163.923C181.596 157.713 182.86 157.765 196.123 157.502C201.123 160.871 212.702 184.555 193.702 181.186C193.533 182.194 193.647 183.23 194.032 184.177C194.416 185.124 195.056 185.946 195.879 186.551C196.703 187.156 197.678 187.521 198.697 187.606C199.715 187.69 200.737 187.49 201.649 187.028C201.175 187.449 194.281 193.765 189.175 187.397C188.305 188.302 187.699 189.428 187.422 190.652C187.145 191.877 187.208 193.154 187.603 194.346C187.998 195.537 188.712 196.598 189.666 197.414C190.62 198.23 191.779 198.77 193.018 198.976C174.018 208.028 179.544 196.292 180.491 179.818C178.018 176.239 168.544 167.923 162.491 160.449C161.967 161.198 161.542 162.012 161.228 162.871C156.903 159.357 153.611 154.737 151.702 149.502C150.952 149.818 150.298 150.327 149.807 150.976C142.244 140.874 135.637 130.091 130.07 118.765C119.544 127.765 125.439 139.818 136.491 153.028C134.597 151.66 122.544 139.397 119.912 137.871C115.439 144.239 118.491 155.292 126.965 159.976C123.089 158.135 118.833 157.234 114.544 157.344C114.622 160.307 115.468 163.199 116.999 165.736C118.531 168.273 120.695 170.369 123.281 171.818C119.583 170.893 115.715 170.893 112.018 171.818C112.749 174.885 114.317 177.69 116.547 179.92C118.777 182.15 121.582 183.718 124.649 184.449C120.55 183.913 116.383 184.571 112.649 186.344C113.479 189.257 115.198 191.837 117.567 193.725C119.936 195.612 122.835 196.712 125.86 196.871C121.699 197.15 117.811 199.038 115.018 202.134C116.373 203.981 118.162 205.466 120.228 206.457C122.293 207.449 124.571 207.916 126.86 207.818C125.213 208.372 123.698 209.261 122.412 210.43C121.125 211.598 120.095 213.021 119.386 214.607C122.597 217.186 126.649 218.818 135.965 215.502C125.439 219.923 127.386 222.081 125.754 226.66C129.86 229.449 138.018 228.081 146.175 220.292C144.491 223.607 131.491 226.87 135.333 236.765H136.86C136.717 236.916 136.61 237.095 136.544 237.292C134.386 236.765 129.123 236.449 126.018 243.87C125.228 243.344 123.281 243.87 120.333 248.239C120.318 248.519 120.318 248.801 120.333 249.081C120.333 249.397 120.333 249.081 120.333 249.923V250.66L120.702 251.397L121.123 251.976L121.702 252.502C121.193 253.256 120.819 254.093 120.597 254.976C120.606 255.081 120.606 255.186 120.597 255.292C120.539 255.904 120.539 256.521 120.597 257.134C120.615 257.256 120.615 257.38 120.597 257.502C120.55 257.728 120.55 257.961 120.597 258.186C120.597 258.186 120.597 258.607 120.597 259.239C120.607 259.361 120.607 259.485 120.597 259.607C120.597 259.87 120.86 260.239 121.228 260.87C121.238 260.976 121.238 261.081 121.228 261.186V261.502L121.702 261.976C122.11 262.4 122.57 262.771 123.07 263.081H123.386C123.059 263.788 122.931 264.57 123.018 265.344V265.66C123.028 265.783 123.028 265.906 123.018 266.028V266.344C123.25 266.777 123.572 267.156 123.963 267.456C124.353 267.755 124.802 267.968 125.281 268.081C124.961 268.739 124.782 269.456 124.754 270.186C124.754 270.186 124.754 270.186 124.754 270.976C124.797 271.388 124.886 271.794 125.018 272.186C125.018 272.186 125.018 272.186 125.018 272.607C125.542 273.56 126.378 274.304 127.386 274.713H127.649H128.123H128.597H132.86H133.123H135.175H135.597C135.597 274.713 135.597 274.713 136.386 274.081C136.774 273.746 137.111 273.356 137.386 272.923H138.333H138.912H139.281C139.281 272.923 139.281 272.923 139.965 272.923C140.546 272.894 141.108 272.712 141.597 272.397H141.86H142.123H142.386C142.537 272.194 142.678 271.983 142.807 271.765C143.139 271.801 143.475 271.801 143.807 271.765H144.228H144.912H145.597C146.205 271.712 146.806 271.588 147.386 271.397H147.754L150.965 274.555H152.912L156.649 266.66C157.491 267.186 156.649 266.66 159.018 267.765C158.963 268.008 158.963 268.259 159.018 268.502L170.439 273.765C170.414 273.922 170.414 274.082 170.439 274.239V274.555C170.439 274.555 170.439 274.555 170.439 274.87C170.351 275.022 170.305 275.195 170.305 275.37C170.305 275.546 170.351 275.718 170.439 275.87C170.411 275.918 170.396 275.973 170.396 276.028C170.396 276.084 170.411 276.138 170.439 276.186C171.018 277.239 170.439 278.292 173.491 278.239C174.018 277.818 174.123 278.239 174.807 275.292C175.175 276.239 174.544 275.765 174.386 278.87C174.524 279.077 174.703 279.253 174.911 279.389C175.119 279.525 175.352 279.617 175.597 279.66C175.597 279.66 175.912 279.66 176.86 279.66C177.175 279.66 177.754 279.66 177.649 278.818C177.649 278.818 177.386 279.66 178.491 280.555C178.491 280.555 178.807 280.555 179.912 280.555H180.175C180.702 280.555 180.491 280.87 181.439 279.976C182.386 279.081 181.439 279.976 181.754 278.134L203.123 288.081C201.228 287.449 185.702 304.134 188.912 290.028C186.649 290.344 182.544 293.186 182.544 299.292C177.281 300.081 170.649 315.976 175.439 316.502C176.081 313.108 177.956 310.071 180.702 307.976C180.702 311.028 179.965 310.87 183.649 316.292C183.333 317.555 171.702 320.239 171.649 323.976C173.386 326.028 179.228 320.818 183.965 319.134V319.923C185.596 319.397 185.018 319.923 187.333 317.607L189.807 316.344C190.435 317.964 191.531 319.36 192.956 320.354C194.381 321.348 196.07 321.894 197.807 321.923C195.679 324.404 192.787 326.106 189.586 326.764C186.385 327.421 183.056 326.996 180.123 325.555C180.123 331.555 200.544 336.081 204.86 321.818C208.228 323.291 207.544 328.555 218.965 324.344C220.241 327.118 222.196 329.526 224.649 331.344C227.186 329.649 229.222 327.304 230.544 324.555C232.175 325.397 242.649 329.134 245.912 319.292C248.807 321.081 256.965 324.976 260.228 315.292L262.175 316.186C263.018 316.765 261.07 317.713 265.86 319.555C265.559 318.989 265.414 318.353 265.439 317.713L280.649 324.818C281.333 324.818 280.649 324.818 283.281 324.818H283.965C283.965 324.818 283.965 324.818 284.281 324.818H284.596C284.596 324.818 284.596 324.818 285.123 324.449L285.596 323.923L285.965 323.344C285.942 323.24 285.942 323.132 285.965 323.028C285.957 322.923 285.957 322.818 285.965 322.713C285.945 322.626 285.945 322.536 285.965 322.449C285.965 322.449 285.965 322.028 285.965 321.449C285.965 321.449 285.965 321.449 285.965 320.818C285.905 320.603 285.797 320.406 285.649 320.239C285.508 319.927 285.291 319.656 285.018 319.449C285.018 319.449 285.018 319.449 284.439 319.081L283.228 318.502L279.491 316.66L281.123 313.186L288.86 316.66L297.439 298.449V297.607L294.965 296.449C301.281 295.028 307.018 275.818 296.491 273.344C294.832 273.761 293.078 273.575 291.544 272.818C291.544 274.607 294.965 277.66 294.965 277.66C295.649 278.713 295.807 280.292 290.491 276.66C307.123 294.449 277.439 292.765 271.175 281.239C271.702 280.765 271.754 280.818 271.965 279.502C271.965 280.134 272.491 280.239 272.807 280.344C273.439 280.344 272.807 280.344 274.07 280.344C275.333 280.344 274.07 280.344 275.439 279.397C275.754 278.713 275.175 278.818 274.965 275.976V275.239C274.965 276.87 274.228 276.081 276.175 278.713C276.175 278.713 279.281 279.186 279.123 276.344C279.211 276.192 279.257 276.02 279.257 275.844C279.257 275.669 279.211 275.496 279.123 275.344C279.123 275.344 279.123 275.344 279.123 274.239C279.946 273.503 280.516 272.527 280.754 271.449H281.175C281.418 271.502 281.669 271.502 281.912 271.449C281.912 271.449 281.912 271.449 282.228 271.081L283.175 270.607C283.448 270.692 283.742 270.668 283.997 270.54C284.252 270.413 284.448 270.192 284.544 269.923L306.175 259.081L306.491 259.66L312.965 256.292L312.702 255.87L315.333 254.555C314.493 253.372 313.82 252.079 313.333 250.713L310.754 252.028L310.491 251.502L303.912 253.502L304.281 254.134L283.228 264.66C283.18 264.632 283.126 264.618 283.07 264.618C283.015 264.618 282.96 264.632 282.912 264.66C282.912 264.66 282.912 264.66 282.912 264.344C282.912 263.818 282.912 263.976 282.544 262.818C282.554 262.678 282.554 262.537 282.544 262.397C282.544 261.607 282.544 261.976 280.281 261.028L279.281 260.344C279.281 260.344 279.281 260.344 278.965 260.028C278.649 259.713 278.965 260.028 278.07 260.028H277.649C277.333 260.028 277.333 260.028 277.281 260.555C277.228 261.081 276.965 260.555 276.807 260.923C275.912 256.923 275.491 253.713 267.491 251.081C269.439 245.818 280.228 245.344 281.175 256.66C281.439 255.028 282.07 246.134 284.86 258.028C285.163 256.35 286.06 254.837 287.386 253.765C287.386 253.765 289.123 251.449 286.807 246.923C287.397 247.046 287.965 247.259 288.491 247.555C289.754 245.186 292.544 244.344 292.123 241.397C295.274 242.977 298.71 243.907 302.228 244.134L301.754 243.66C301.778 243.521 301.778 243.378 301.754 243.239C302.028 243.578 302.347 243.879 302.702 244.134C303.491 244.134 299.386 245.818 303.07 248.186C303.702 247.818 300.86 250.502 304.123 250.923C304.123 250.923 303.491 252.186 304.123 252.976L309.386 250.239C308.544 249.818 299.702 244.344 310.018 239.344C310.659 238.638 311.079 237.76 311.228 236.818C312.126 236.594 313.042 236.453 313.965 236.397C316.018 231.134 310.123 224.292 303.123 219.923C308.386 222.66 314.912 232.081 323.544 226.292C321.912 221.713 323.965 219.555 313.333 215.134C322.649 218.449 326.702 216.818 329.912 214.239C329.25 212.649 328.268 211.212 327.028 210.017C325.788 208.822 324.315 207.894 322.702 207.292C324.991 207.394 327.271 206.929 329.337 205.937C331.403 204.945 333.192 203.458 334.544 201.607C331.751 198.511 327.862 196.624 323.702 196.344C326.726 196.186 329.626 195.086 331.994 193.199C334.363 191.311 336.082 188.731 336.912 185.818"
    fill="#808D9C" />
  <path
    d="M320.281 239.397C319.24 239.918 318.325 240.658 317.598 241.567C316.872 242.475 316.35 243.531 316.07 244.66L315.544 245.028L315.281 245.765C315.098 245.687 314.901 245.647 314.702 245.647C314.503 245.647 314.306 245.687 314.123 245.765C312.597 246.449 313.439 248.186 313.439 248.186C313.439 248.186 314.123 250.081 314.649 251.186C315.194 252.227 315.81 253.229 316.491 254.186C316.491 254.186 317.702 255.502 318.807 254.923C319.043 254.793 319.241 254.603 319.379 254.372C319.518 254.14 319.593 253.877 319.597 253.607H320.176H321.228C322.476 254.047 323.813 254.171 325.12 253.968C326.428 253.764 327.664 253.24 328.719 252.441C329.773 251.642 330.614 250.595 331.164 249.392C331.715 248.189 331.958 246.868 331.873 245.548C331.788 244.228 331.377 242.949 330.676 241.827C329.976 240.705 329.008 239.774 327.859 239.117C326.71 238.461 325.417 238.099 324.094 238.066C322.772 238.032 321.462 238.326 320.281 238.923"
    fill="#808D9C" />
  <path
    d="M303.597 253.502C302.702 252.081 303.281 251.502 303.281 251.502C303.015 251.488 302.759 251.396 302.544 251.239L299.65 252.713C299.123 253.028 298.123 253.66 297.965 254.344C299.884 254.713 301.87 254.416 303.597 253.502Z"
    fill="#808D9C" />
  <path
    d="M302.386 251.134C301.807 250.66 301.649 250.292 301.754 249.765C301.86 249.239 301.754 248.818 302.386 248.555H301.86C301.86 248.555 300.281 248.555 300.017 248.555C298.257 248.834 296.604 249.579 295.228 250.713C296.86 252.397 300.491 251.87 302.386 251.344"
    fill="#808D9C" />
  <path
    d="M301.649 248.239C301.384 248.043 301.166 247.79 301.011 247.498C300.856 247.207 300.768 246.884 300.754 246.555C300.725 246.227 300.777 245.897 300.905 245.594C301.034 245.291 301.235 245.024 301.491 244.818C298.299 244.406 295.056 244.657 291.965 245.555C292.853 246.45 293.924 247.144 295.105 247.589C296.286 248.034 297.548 248.22 298.807 248.134H301.649"
    fill="#808D9C" />
  <path
    d="M321.491 261.976C319.597 261.976 318.439 263.502 316.597 263.502C315.847 263.517 315.106 263.342 314.443 262.992C313.78 262.642 313.217 262.129 312.807 261.502C311.934 259.794 311.746 257.818 312.281 255.976L307.018 258.765C307.018 259.87 308.597 260.134 308.597 260.134C308.425 260.42 308.334 260.747 308.334 261.081C308.334 261.415 308.425 261.742 308.597 262.028C309.123 262.923 310.386 262.555 310.386 262.555C310.386 262.555 310.386 264.449 311.123 265.186C311.465 265.39 311.856 265.498 312.254 265.498C312.653 265.498 313.044 265.39 313.386 265.186C313.369 265.687 313.459 266.185 313.65 266.647C313.84 267.11 314.127 267.527 314.491 267.87C314.831 268.08 315.223 268.191 315.623 268.191C316.022 268.191 316.414 268.08 316.754 267.87C316.754 267.87 317.175 269.239 317.86 269.555C318.268 269.643 318.693 269.604 319.078 269.444C319.464 269.284 319.791 269.011 320.018 268.66C320.143 269.223 320.38 269.756 320.714 270.226C321.049 270.696 321.474 271.094 321.965 271.397C322.416 271.568 322.902 271.624 323.38 271.56C323.858 271.496 324.312 271.313 324.702 271.028C326.175 269.923 325.281 271.607 325.123 272.028C324.491 274.134 323.754 276.134 323.07 278.186C322.718 278.964 322.537 279.807 322.537 280.66C322.537 281.513 322.718 282.356 323.07 283.134C323.07 283.134 323.912 284.081 324.597 283.923C325.175 281.607 325.965 279.344 326.597 277.028C327.52 274.456 328.052 271.759 328.175 269.028C328.183 267.14 327.594 265.298 326.491 263.765C325.974 263.055 325.278 262.496 324.473 262.145C323.668 261.793 322.784 261.662 321.912 261.765"
    fill="#808D9C" />
  <path
    d="M307.807 260.397C307.807 260.397 307.07 260.397 306.386 258.976C304.628 259.828 303.216 261.259 302.386 263.028C303.184 263.162 304.003 263.013 304.702 262.607C305.694 262.172 306.661 261.68 307.597 261.134C307.561 260.889 307.561 260.641 307.597 260.397"
    fill="#808D9C" />
  <path
    d="M309.597 263.502C309.57 263.328 309.57 263.15 309.597 262.976C309.135 263.125 308.638 263.125 308.176 262.976C307.942 262.848 307.749 262.656 307.618 262.424C307.488 262.191 307.426 261.926 307.439 261.66C305.807 262.976 303.333 265.449 303.755 267.765C305.492 267.352 307.079 266.458 308.333 265.186C308.731 264.718 309.1 264.226 309.439 263.713"
    fill="#808D9C" />
  <path
    d="M310.491 265.607C309.993 265.14 309.692 264.5 309.649 263.818C309.649 263.818 308.228 266.028 308.07 266.186C307.255 267.13 306.657 268.241 306.32 269.442C305.984 270.643 305.916 271.904 306.123 273.134C308.672 271.188 310.787 268.732 312.334 265.923C312.025 266.029 311.694 266.056 311.372 266.001C311.05 265.945 310.747 265.81 310.491 265.607Z"
    fill="#808D9C" />
  <path
    d="M315.123 268.765C314.803 268.77 314.486 268.695 314.202 268.549C313.917 268.402 313.673 268.187 313.491 267.923C313.232 267.66 313.028 267.348 312.892 267.004C312.756 266.66 312.692 266.293 312.702 265.923C312.702 265.923 311.86 267.292 311.807 267.292C309.83 269.99 308.795 273.263 308.86 276.607C309.887 275.961 310.796 275.142 311.544 274.186C311.86 274.186 315.018 268.923 315.018 268.923"
    fill="#808D9C" />
  <path
    d="M316.07 273.818L318.228 270.186C317.941 270.216 317.651 270.174 317.385 270.064C317.118 269.953 316.884 269.778 316.702 269.555C316.462 269.259 316.283 268.919 316.175 268.555C315.967 268.596 315.752 268.596 315.544 268.555L314.175 270.765C312.405 274.004 311.397 277.604 311.228 281.292C311.875 280.707 312.457 280.054 312.965 279.344C313.86 278.028 316.07 274.081 316.07 274.081"
    fill="#808D9C" />
  <path
    d="M320.702 271.449C320.095 270.848 319.643 270.107 319.386 269.292C319.189 269.574 318.915 269.793 318.597 269.923C318.228 270.449 316.018 274.607 316.018 274.607C314.281 277.818 311.755 284.765 312.913 286.66C314.906 284.319 316.473 281.647 317.544 278.765L320.702 271.449Z"
    fill="#808D9C" />
  <path
    d="M321.491 280.291L324.807 271.344C324.32 271.801 323.699 272.089 323.035 272.165C322.371 272.241 321.701 272.101 321.123 271.765C321.123 271.765 318.965 277.028 317.755 280.028C316.184 283.487 315.601 287.312 316.07 291.081C316.843 290.536 317.475 289.814 317.912 288.976C318.273 288.368 318.59 287.734 318.86 287.081L321.491 280.291Z"
    fill="#808D9C" />
  <path
    d="M321.649 281.449C320.135 284.811 319.039 288.347 318.386 291.976C318.46 294.197 318.923 296.388 319.755 298.449L323.965 284.818C323.965 284.818 321.913 284.818 321.649 281.66"
    fill="#808D9C" />
  <path
    d="M224.649 191.344H196.754V249.239C196.754 256.397 199.702 259.765 205.86 259.765H215.07C217.284 259.889 219.401 260.709 221.122 262.108C222.842 263.507 224.076 265.413 224.649 267.555C225.094 265.353 226.263 263.363 227.971 261.904C229.679 260.444 231.826 259.599 234.07 259.502H243.333C249.439 259.502 252.439 256.134 252.439 248.976V191.081L224.649 191.344Z"
    fill="white" />
  <path
    d="M224.649 191.344H196.754V249.239C196.754 256.397 199.702 259.765 205.86 259.765H215.07C217.284 259.889 219.401 260.709 221.122 262.108C222.842 263.507 224.076 265.413 224.649 267.555C225.094 265.353 226.263 263.363 227.971 261.904C229.679 260.444 231.826 259.599 234.07 259.502H243.333C249.439 259.502 252.439 256.134 252.439 248.976V191.081L224.649 191.344Z"
    stroke="white" stroke-width="0.157895" stroke-miterlimit="10" />
  <path
    d="M213.281 246.765H211.754C211.754 246.028 211.176 245.765 211.123 244.976C211.123 242.186 210.018 243.292 212.702 238.081C215.228 236.292 213.439 236.186 219.491 232.818C220.228 233.344 220.07 235.028 219.491 235.66C219.628 235.946 219.734 236.246 219.807 236.555C220.251 236.79 220.731 236.95 221.228 237.028C222.386 238.028 222.07 237.555 225.333 242.818C225.333 242.818 225.333 242.449 225.333 242.239L225.912 242.765H225.439C225.439 243.134 225.439 243.66 225.754 243.66C226.07 243.66 224.439 243.66 224.123 244.134C223.671 244.167 223.245 244.353 222.912 244.66C222.439 244.66 222.228 244.66 221.86 245.028C224.281 244.028 214.755 232.765 213.123 246.134C213.123 246.134 213.123 246.134 212.597 246.134C212.07 246.134 213.281 246.449 213.281 246.87M226.755 240.923L224.333 232.239C224.681 231.589 224.879 230.87 224.912 230.134C225.491 230.134 226.123 230.134 226.755 230.134C227.176 230.757 227.413 231.487 227.439 232.239C227.912 232.239 226.86 233.028 227.439 234.449C228.386 234.449 227.702 234.449 229.386 234.028C230.807 234.028 230.176 234.028 232.018 236.344C232.517 237.892 233.264 239.35 234.228 240.66C233.281 240.66 234.228 240.66 233.491 241.976C233.491 241.976 233.491 241.134 234.333 241.397C234.333 241.397 234.333 241.87 234.333 242.081C234.333 242.292 234.333 242.081 233.702 243.186C233.702 243.186 233.702 242.923 233.702 242.765C233.702 242.607 233.702 242.765 234.439 242.765C234.5 243.078 234.5 243.4 234.439 243.713C234.439 243.713 233.965 243.976 233.86 244.239C233.626 244.179 233.383 244.172 233.146 244.217C232.909 244.263 232.686 244.36 232.491 244.502C232.491 244.502 232.491 244.502 233.176 244.502C233.86 244.502 233.176 244.765 233.176 245.028C233.176 245.028 232.649 245.028 232.439 245.028C232.228 245.028 231.228 243.976 230.281 244.081C229.333 244.186 230.281 244.081 229.176 244.081C229.544 244.081 229.176 244.081 230.018 244.081C230.86 244.081 230.544 243.607 230.965 243.555C231.003 243.692 231.003 243.838 230.965 243.976C230.965 244.502 232.491 243.292 230.597 242.713C229.551 243.155 228.603 243.799 227.807 244.607C227.807 244.186 228.176 243.66 227.807 243.292C228.439 243.292 228.439 242.239 229.228 242.134C230.018 242.028 229.228 242.555 229.228 242.66C229.965 242.66 229.228 242.66 229.702 241.344C229.386 241.344 229.702 241.081 228.649 241.344C227.597 241.607 228.123 240.976 227.386 242.66C227.123 242.66 227.912 242.081 226.912 241.028C226.912 241.028 226.491 241.028 226.228 241.292M213.965 197.449C213.439 198.292 213.649 197.449 214.281 200.134C213.912 200.818 213.333 200.555 213.544 202.818C212.281 203.502 205.333 202.292 206.491 206.818C206.491 206.818 204.386 209.028 206.491 210.239C206.491 210.923 205.649 211.239 207.018 212.239C207.127 212.436 207.287 212.601 207.481 212.716C207.676 212.83 207.897 212.891 208.123 212.891C208.349 212.891 208.57 212.83 208.764 212.716C208.959 212.601 209.119 212.436 209.228 212.239C210.86 211.502 210.281 216.555 212.649 213.555C213.238 213.688 213.85 213.688 214.439 213.555L215.123 214.028C215.754 213.555 215.123 213.502 216.912 214.028C217.054 213.843 217.237 213.694 217.448 213.593C217.658 213.493 217.89 213.443 218.123 213.449L218.649 215.397H218.228C218.228 217.028 219.176 217.818 219.333 219.344C216.985 219.295 214.654 219.743 212.491 220.66C210.597 217.081 202.86 216.976 203.333 225.923C203.229 226.024 203.15 226.148 203.105 226.285C203.059 226.423 203.047 226.57 203.07 226.713C203.406 226.599 203.725 226.439 204.018 226.239C203.799 227.793 203.799 229.369 204.018 230.923C204.707 230.359 205.189 229.581 205.386 228.713C205.665 229.604 205.665 230.558 205.386 231.449C205.755 230.397 207.649 230.923 208.491 227.713C208.491 228.765 208.86 230.028 208.176 230.66C208.412 230.564 208.627 230.42 208.807 230.239C212.07 232.555 206.702 218.502 212.018 222.081C209.912 225.186 215.702 231.87 210.544 237.555C210.374 239.957 209.515 242.26 208.07 244.186C208.07 244.186 208.07 244.186 208.333 244.186C208.333 244.186 208.333 244.186 208.597 244.186C208.86 244.186 208.597 244.186 208.333 245.818C206.544 247.186 209.123 240.555 204.176 240.555C207.965 241.397 203.544 252.66 214.386 250.134V250.818C213.975 251.205 213.492 251.509 212.965 251.713C216.649 250.87 224.702 258.713 230.281 252.923C230.281 252.081 232.597 253.765 232.018 250.607C232.386 250.607 232.018 250.028 233.544 249.923H233.912C233.912 249.923 234.333 249.923 235.123 249.923C235.912 249.923 235.123 250.66 237.491 251.081C237.697 250.82 237.874 250.538 238.018 250.239C240.07 249.397 244.123 251.186 244.386 247.186C244.212 247.496 244.018 247.795 243.807 248.081C243.807 248.081 243.807 248.081 244.281 247.607C244.281 248.028 243.86 248.502 243.649 248.555C243.439 248.607 244.281 247.186 243.649 246.502C243.681 246.886 243.591 247.27 243.393 247.601C243.195 247.931 242.898 248.191 242.544 248.344C242.544 248.344 242.807 247.292 242.544 247.081C242.55 247.232 242.52 247.383 242.456 247.521C242.392 247.658 242.296 247.778 242.176 247.87C242.176 247.87 242.176 247.292 242.176 247.239C242.127 247.489 242.014 247.723 241.848 247.917C241.682 248.11 241.468 248.258 241.228 248.344C241.228 248.344 241.228 248.344 241.228 247.87C241.228 247.397 241.228 248.186 240.754 248.186C240.281 248.186 240.754 247.713 240.491 247.607C240.228 247.502 240.491 247.976 240.176 248.081C239.86 248.186 240.176 247.66 239.912 247.555C239.649 247.449 239.912 247.555 239.912 247.87C239.792 247.384 239.557 246.933 239.228 246.555C239.597 246.555 239.228 246.028 239.597 245.87C239.965 245.713 239.597 245.87 240.07 245.87C240.544 245.87 240.07 245.502 240.07 245.397C240.07 245.292 240.07 245.397 240.386 245.397C240.702 245.397 240.386 245.081 240.386 244.923C240.386 244.765 240.649 244.923 240.807 244.607C240.974 244.663 241.123 244.76 241.243 244.889C241.362 245.017 241.448 245.174 241.491 245.344C241.622 244.879 241.622 244.388 241.491 243.923C241.491 243.923 241.491 243.923 241.86 243.923C242.228 243.923 242.281 244.66 242.228 244.87C242.176 245.081 242.228 244.134 242.228 243.765C242.228 243.397 242.544 244.239 242.754 244.502C242.754 242.765 240.702 243.239 238.123 245.292C238.123 244.818 237.386 244.607 237.123 244.081C237.325 243.739 237.468 243.366 237.544 242.976C237.544 242.976 237.018 242.976 236.912 242.502C236.962 242.33 236.962 242.148 236.912 241.976C236.912 241.976 236.439 241.976 236.228 241.976C235.651 238.409 234.806 234.89 233.702 231.449C233.702 232.134 233.702 231.449 233.702 231.449L234.965 231.976C235.86 232.239 238.597 228.713 242.281 227.976C243.018 228.818 241.439 230.081 240.649 232.607C240.333 232.607 240.649 233.134 240.333 233.449C238.86 233.449 239.018 231.87 238.333 235.66C239.807 235.66 238.333 235.66 241.281 235.134C243.544 233.555 243.649 231.66 244.754 226.239C242.597 223.66 244.386 224.713 236.912 226.239C237.649 224.449 236.597 225.081 235.544 218.607C236.281 218.976 236.281 219.186 237.702 217.607C237.439 217.607 238.333 219.028 239.386 218.028C239.386 218.028 239.386 218.028 239.702 218.028C240.018 218.028 239.702 218.028 240.439 218.028C242.386 217.292 243.018 216.976 241.176 210.397C241.176 210.397 241.544 210.397 241.491 210.397H242.386C242.07 209.765 242.386 208.87 241.965 208.344L242.597 207.713C242.1 207.486 241.563 207.361 241.018 207.344C241.018 207.344 241.018 207.081 239.649 206.87C239.649 206.502 240.228 206.134 240.491 205.713C239.914 205.653 239.332 205.653 238.754 205.713C238.754 205.713 238.754 205.713 237.386 205.397C236.018 205.081 236.123 204.081 232.123 205.397C232.355 205.385 232.587 205.438 232.791 205.549C232.995 205.661 233.165 205.827 233.281 206.028C231.702 206.028 232.228 205.292 229.702 206.87C229.486 206.942 229.291 207.065 229.134 207.231C228.978 207.396 228.866 207.598 228.807 207.818H229.439C229.123 208.239 227.333 207.818 227.123 208.713C227.86 208.713 227.544 208.713 228.807 208.713C227.86 209.081 228.807 208.713 226.702 210.555C226.585 209.756 226.275 208.998 225.798 208.346C225.321 207.695 224.691 207.17 223.965 206.818C223.965 206.818 223.649 206.818 223.965 205.765C224.281 205.765 224.491 206.081 225.07 205.449C227.807 207.449 228.439 197.449 222.228 200.923C224.544 198.344 230.386 204.292 225.123 205.397L225.544 205.028C225.544 205.028 225.544 204.134 226.333 203.976C226.362 203.661 226.362 203.344 226.333 203.028C226.399 202.888 226.433 202.736 226.433 202.581C226.433 202.426 226.399 202.274 226.333 202.134C226.333 202.397 226.333 202.818 226.018 202.976C225.702 203.134 226.018 202.134 226.018 201.976C226.123 202.247 226.123 202.547 226.018 202.818C226.018 202.818 226.018 202.555 226.018 202.344C226.018 202.134 226.018 202.607 226.018 202.713C226.018 202.818 225.702 202.344 225.386 202.344C224.176 202.344 223.281 203.923 223.018 204.976C223.018 204.976 221.965 204.976 222.386 203.87C221.965 204.344 221.228 204.502 222.386 202.713C221.807 202.713 221.544 203.555 221.228 204.081C221.228 203.66 220.386 203.239 221.912 202.186C221.386 202.186 221.912 202.186 220.86 202.818C220.281 202.292 221.176 201.344 223.333 200.66C223.333 200.66 223.333 200.66 222.123 201.081C221.439 201.081 219.386 203.449 221.491 204.134C221.491 204.818 222.176 204.134 221.228 205.449C219.57 204.153 217.648 203.237 215.597 202.765V202.239C215.86 201.66 216.07 201.713 215.07 200.607C215.07 200.607 215.07 200.607 214.333 200.607C213.597 200.607 215.649 198.976 214.491 196.976L213.965 197.449Z"
    fill="#808D9C" />
  <path
    d="M297.228 275.607C296.544 275.607 296.386 277.081 297.649 276.502C297.649 276.081 298.018 276.081 297.228 275.607ZM297.228 277.134C297.228 277.134 295.123 275.818 297.228 275.081C297.281 274.555 299.333 276.66 297.228 277.134ZM283.965 250.239C284.544 250.765 284.544 250.239 283.965 250.239C283.386 249.713 283.281 252.397 283.965 250.239ZM283.965 251.818C282.965 252.397 282.491 248.081 285.018 250.713C285.018 251.292 285.07 250.765 283.965 251.818ZM323.807 284.344L319.386 298.081C318.57 295.277 318.322 292.338 318.657 289.437C318.991 286.536 319.901 283.731 321.333 281.186C321.597 284.555 323.649 284.344 323.649 284.344M318.386 286.87C317.789 288.436 316.813 289.829 315.544 290.923C314.491 286.818 317.333 278.976 320.807 271.502C321.4 271.827 322.081 271.956 322.752 271.871C323.423 271.786 324.05 271.491 324.544 271.028C323.491 274.186 321.018 280.923 318.649 286.87H318.386ZM317.176 278.765C316.083 281.648 314.498 284.319 312.491 286.66C312.685 280.584 314.682 274.703 318.228 269.765C318.445 269.789 318.665 269.757 318.867 269.675C319.069 269.592 319.248 269.46 319.386 269.292C319.685 270.012 320.113 270.672 320.649 271.239L317.176 278.765ZM312.439 279.028C311.906 279.717 311.307 280.352 310.649 280.923C310.924 276.425 312.436 272.09 315.018 268.397C315.226 268.438 315.441 268.438 315.649 268.397C315.649 268.397 315.386 269.713 317.754 270.028C316.281 272.449 316.123 272.818 312.491 279.186M311.123 273.923C310.374 274.879 309.466 275.698 308.439 276.344C308.322 273.001 309.343 269.717 311.333 267.028L312.176 265.607C312.176 265.028 312.176 268.344 314.649 268.502C314.649 268.502 311.439 273.765 311.123 273.765M311.807 265.502C310.245 268.331 308.112 270.804 305.544 272.765C305.324 271.515 305.39 270.231 305.736 269.01C306.083 267.789 306.701 266.661 307.544 265.713C307.544 265.713 309.123 263.344 309.123 263.344C309.123 263.344 308.649 265.555 311.807 265.502ZM303.597 267.239C303.228 264.923 305.702 262.397 307.386 261.081C307.807 261.555 306.807 262.186 309.491 262.607C309.457 262.799 309.457 262.995 309.491 263.186C309.13 263.68 308.744 264.154 308.333 264.607C307.059 265.891 305.457 266.802 303.702 267.239M307.439 260.765C305.917 261.915 304.081 262.576 302.176 262.66C303.032 260.873 304.483 259.44 306.281 258.607C306.912 260.186 307.702 260.028 307.702 260.028C307.564 260.253 307.474 260.504 307.439 260.765ZM326.176 263.66C327.597 264.976 327.544 267.081 327.912 268.923C327.386 272.66 328.754 267.818 324.228 283.87C317.649 281.923 329.912 275.292 319.649 268.502C319.649 268.502 317.702 271.028 316.333 267.765C316.754 267.134 313.07 269.449 312.965 265.028C313.439 264.397 309.597 266.66 309.912 262.292C310.597 262.292 306.649 262.713 308.281 259.818C308.281 259.818 306.86 259.818 306.649 258.449L312.228 255.66C312.228 256.607 311.333 266.976 321.491 261.66C322.382 261.576 323.28 261.72 324.1 262.079C324.919 262.438 325.634 263 326.176 263.713M279.281 219.134L292.965 223.818C292.965 223.818 291.597 225.397 294.176 227.555C288.597 224.555 287.228 229.028 279.281 219.134ZM293.07 231.502C289.293 230.68 285.804 228.863 282.965 226.239C288.228 225.344 296.965 229.081 304.439 230.923C302.281 231.713 302.123 232.449 301.86 233.66L293.07 231.502ZM284.597 231.502C290.475 231.567 296.304 232.58 301.86 234.502C301.984 235.257 302.272 235.975 302.702 236.607C302.395 236.499 302.061 236.499 301.755 236.607C295.672 236.394 289.753 234.578 284.597 231.344M298.333 239.765C294.705 239.283 291.223 238.027 288.123 236.081C292.546 235.916 296.973 236.215 301.333 236.976C301.333 236.976 300.597 237.923 301.333 239.555L300.86 240.028L298.333 239.765ZM299.912 243.87C296.544 243.821 293.28 242.696 290.597 240.66C291.734 240.197 292.947 239.947 294.176 239.923C294.597 239.923 300.649 240.344 300.649 240.344C300.649 240.344 299.333 242.239 301.544 243.976L299.912 243.87ZM298.544 247.555C297.277 247.645 296.005 247.462 294.815 247.017C293.626 246.572 292.546 245.876 291.649 244.976C294.794 244.079 298.089 243.828 301.333 244.239C300.965 244.923 299.702 245.449 301.333 247.66C301.333 247.66 298.702 247.66 298.439 247.66M294.807 250.186C295.732 249.379 296.809 248.768 297.976 248.388C299.143 248.008 300.374 247.868 301.597 247.976C301.597 247.976 301.912 247.976 302.07 247.976C302.228 247.976 300.702 248.607 302.07 250.555C300.07 251.134 296.491 251.607 294.807 249.923M297.649 253.87C298.386 253.028 297.123 253.292 302.281 250.713C302.506 250.861 302.755 250.968 303.018 251.028C303.018 251.028 302.491 251.555 303.386 252.976C301.636 253.932 299.607 254.248 297.649 253.87ZM293.07 225.607C293.07 225.607 293.07 224.344 293.07 223.923C297.997 225.489 302.785 227.461 307.386 229.818C307.123 231.397 312.649 231.292 309.544 239.239C309.544 241.028 298.491 243.502 308.965 250.186C307.07 251.186 303.702 252.66 303.386 252.976C302.597 252.186 303.386 250.87 303.386 250.87C303.386 250.87 300.07 250.449 302.386 248.134C303.386 248.449 298.702 246.081 301.965 244.081C302.965 244.502 298.439 241.713 301.702 239.765C302.544 239.765 298.86 237.607 303.07 236.607C301.386 229.186 307.176 232.923 292.965 225.607M290.228 297.502L286.86 304.502L282.544 302.449L284.86 297.66C286.608 297.864 288.374 297.864 290.123 297.66M293.439 296.607L292.544 298.449L290.544 297.555C291.535 297.326 292.504 297.009 293.439 296.607ZM265.176 301.292L270.439 290.765C272.734 292.856 275.301 294.626 278.07 296.028L273.649 305.397L265.176 301.292ZM263.333 309.555L252.807 304.555C253.86 304.239 253.544 304.555 257.597 302.292L265.386 305.923L263.333 309.555ZM218.597 308.449C216.555 309.195 214.369 309.464 212.207 309.236C210.046 309.008 207.964 308.289 206.123 307.134L222.912 298.818L225.755 300.134C224.464 303.687 221.918 306.645 218.597 308.449ZM219.386 296.976L205.544 303.976C206.013 301.897 206.899 299.934 208.147 298.206C209.396 296.479 210.981 295.022 212.807 293.923L219.386 296.976ZM240.755 274.555C243.56 273.475 246.615 273.218 249.561 273.815C252.507 274.411 255.222 275.837 257.386 277.923L234.333 289.66C234.912 283.87 236.439 276.449 240.755 274.555ZM235.491 292.87L259.597 280.923C260.544 291.449 251.544 304.713 235.491 292.87ZM140.018 265.713H138.281C139.018 268.449 129.176 271.607 131.807 263.028C130.521 261.505 129.694 259.647 129.422 257.672C129.151 255.697 129.445 253.685 130.273 251.871C131.1 250.057 132.425 248.515 134.094 247.425C135.764 246.334 137.708 245.741 139.702 245.713C140.07 242.923 148.176 241.87 146.334 248.976C147.424 250.397 148.134 252.072 148.396 253.844C148.658 255.616 148.464 257.425 147.832 259.101C147.199 260.777 146.15 262.264 144.782 263.421C143.415 264.577 141.775 265.366 140.018 265.713ZM331.018 242.449C330.121 241.132 328.875 240.09 327.42 239.441C325.965 238.792 324.357 238.561 322.778 238.774C321.199 238.987 319.71 239.636 318.479 240.648C317.248 241.659 316.322 242.994 315.807 244.502C313.333 246.449 312.754 248.081 312.912 249.344L265.544 273.502C260.86 269.502 268.544 226.765 280.018 256.555C280.018 255.713 280.807 245.292 283.755 257.976C284.085 256.295 284.998 254.785 286.333 253.713C286.333 231.239 249.755 236.555 257.544 269.502C243.07 260.397 228.018 270.976 227.176 288.081C223.137 286.609 218.789 286.193 214.544 286.87L160.07 261.502L157.281 260.292L161.07 252.397C160.544 252.397 159.491 251.765 157.018 250.555C156.803 249.586 156.375 248.677 155.765 247.894C155.155 247.111 154.378 246.474 153.491 246.028C154.018 244.449 154.228 245.344 151.281 240.765C152.807 237.87 148.755 229.134 142.176 236.502C139.649 235.239 142.176 235.923 136.912 238.134C134.807 237.607 129.597 237.292 126.649 244.555C126.649 244.555 118.491 244.555 122.702 252.976C120.491 256.397 119.228 258.765 124.228 264.87C123.702 266.397 123.491 265.607 126.491 270.134C124.965 272.976 128.965 281.66 135.597 274.344C138.07 275.607 135.597 274.923 140.86 272.713C141.768 273.129 142.755 273.344 143.755 273.344C144.754 273.344 145.741 273.129 146.649 272.713L150.649 274.607L154.123 267.292L205.649 291.134C202.306 294.471 200.16 298.819 199.544 303.502C193.544 294.239 165.018 301.344 173.228 316.923C174.334 311.66 182.07 298.607 197.018 308.713C143.807 335.028 180.912 321.502 198.702 311.081C197.912 315.449 197.491 333.449 177.965 326.186C181.702 336.028 206.333 334.449 204.281 313.292C219.386 318.923 224.333 315.291 231.755 303.292L280.07 325.66C279.807 325.66 288.491 326.134 283.176 319.134C283.176 319.134 281.281 318.186 277.912 316.66L279.649 313.028L287.755 316.765L296.702 297.818L294.228 296.66C300.807 295.292 306.649 275.607 295.912 273.344C294.26 273.782 292.505 273.614 290.965 272.87C291.86 275.344 298.491 282.344 289.912 276.713C307.755 299.976 269.386 287.923 266.807 277.502L314.807 253.713C315.702 254.607 317.176 254.923 320.333 254.028C324.281 254.765 333.386 254.028 330.86 242.976"
    fill="#FABC42" />
</svg>