<svg width="450" height="450" viewBox="0 0 450 450" fill="none" xmlns="http://www.w3.org/2000/svg">
<g clip-path="url(#clip0_1_415)">
<path d="M235.74 261.636H87.7582V202.348H235.74C244.384 202.348 250.394 203.873 253.41 206.537C256.426 209.201 258.295 214.142 258.295 221.359V242.648C258.295 250.253 256.426 255.193 253.41 257.857C250.394 260.521 244.384 261.659 235.74 261.659V261.636ZM245.892 146.451H25V400H87.7582V317.51H203.415L258.295 400H328.571L268.064 317.123C290.372 313.776 300.389 306.855 308.65 295.448C316.911 284.041 321.053 265.803 321.053 241.464V222.452C321.053 208.017 319.545 196.61 316.911 187.867C314.278 179.124 309.775 171.519 303.383 164.689C296.63 158.223 289.111 153.669 280.085 150.618C271.058 147.954 259.78 146.429 245.892 146.429V146.451Z" fill="#100943"/>
<path d="M376.786 146.429C403.414 146.429 425 124.842 425 98.2143C425 71.5863 403.414 50 376.786 50C350.158 50 328.571 71.5863 328.571 98.2143C328.571 124.842 350.158 146.429 376.786 146.429Z" fill="#ED143B"/>
</g>
<defs>
<clipPath id="clip0_1_415">
<rect width="400" height="350" fill="white" transform="translate(25 50)"/>
</clipPath>
</defs>
</svg>
