<svg width="450" height="450" viewBox="0 0 450 450" fill="none" xmlns="http://www.w3.org/2000/svg">
<g clip-path="url(#clip0_1_429)">
<mask id="mask0_1_429" style="mask-type:luminance" maskUnits="userSpaceOnUse" x="26" y="27" width="398" height="397">
<path d="M423.02 27H26.9805V423.61H423.02V27Z" fill="white"/>
</mask>
<g mask="url(#mask0_1_429)">
<path d="M26.9805 217.373C26.9805 127.63 26.9805 82.759 54.8198 54.8795C82.6593 27 127.466 27 217.079 27H232.921C322.535 27 367.341 27 395.181 54.8795C423.02 82.759 423.02 127.63 423.02 217.373V233.237C423.02 322.98 423.02 367.851 395.181 395.731C367.341 423.61 322.535 423.61 232.921 423.61H217.079C127.466 423.61 82.6593 423.61 54.8198 395.731C26.9805 367.851 26.9805 322.98 26.9805 233.237V217.373Z" fill="#0077FF"/>
<path d="M237.707 312.726C147.443 312.726 95.9583 250.756 93.813 147.637H139.028C140.513 223.323 173.845 255.382 200.248 261.993V147.637H242.824V212.912C268.896 210.103 296.285 180.357 305.527 147.637H348.102C341.006 187.959 311.303 217.704 290.181 229.933C311.303 239.848 345.133 265.793 358.005 312.726H311.139C301.072 281.327 275.992 257.035 242.824 253.73V312.726H237.707Z" fill="white"/>
</g>
</g>
<defs>
<clipPath id="clip0_1_429">
<rect width="400" height="396.61" fill="white" transform="translate(25 27)"/>
</clipPath>
</defs>
</svg>
