<svg width="450" height="450" viewBox="0 0 450 450" fill="none" xmlns="http://www.w3.org/2000/svg">
<path fill-rule="evenodd" clip-rule="evenodd" d="M425 225C425 335.458 335.458 425 225 425C114.543 425 25 335.458 25 225C25 114.543 114.543 25 225 25C335.458 25 425 114.543 425 225ZM289.516 339.011V110.742H232.061C176.487 110.742 143.326 138.353 143.326 184.59C143.326 220.949 161.929 241.716 189.869 261.73L190.339 262.059L190.01 262.53L138.529 339.223H180.485L238.035 253.216L218.326 239.929C193.514 223.089 181.708 210.178 181.708 182.238C181.708 156.18 200.616 140.611 232.273 140.611H250.122H250.711V141.198V339.011H289.516Z" fill="#11375B"/>
</svg>
